<?xml version="1.0" encoding="utf-8" standalone="no"?>
<!DOCTYPE svg PUBLIC "-//W3C//DTD SVG 1.1//EN"
  "http://www.w3.org/Graphics/SVG/1.1/DTD/svg11.dtd">
<!-- Created with matplotlib (https://matplotlib.org/) -->
<svg height="342.72pt" version="1.1" viewBox="0 0 460.8 342.72" width="460.8pt" xmlns="http://www.w3.org/2000/svg" xmlns:xlink="http://www.w3.org/1999/xlink">
 <defs>
  <style type="text/css">
*{stroke-linecap:butt;stroke-linejoin:round;white-space:pre;}
  </style>
 </defs>
 <g id="figure_1">
  <g id="patch_1">
   <path d="M 0 342.72 
L 460.8 342.72 
L 460.8 0 
L 0 0 
z
" style="fill:#ffffff;"/>
  </g>
  <g id="axes_1">
   <g id="patch_2">
    <path d="M 50.87 235.69 
L 450 235.69 
L 450 25.44 
L 50.87 25.44 
z
" style="fill:#ffffff;"/>
   </g>
   <g id="patch_3">
    <path clip-path="url(#p0e2a291762)" d="M 66.809487 235.312092 
L 75.0455 235.312092 
L 75.0455 53.31193 
L 66.809487 53.31193 
z
" style="fill:#1f77b4;"/>
   </g>
   <g id="patch_4">
    <path clip-path="url(#p0e2a291762)" d="M 75.960613 235.312092 
L 84.196627 235.312092 
L 84.196627 59.731197 
L 75.960613 59.731197 
z
" style="fill:#1f77b4;"/>
   </g>
   <g id="patch_5">
    <path clip-path="url(#p0e2a291762)" d="M 85.111739 235.312092 
L 93.347753 235.312092 
L 93.347753 166.974613 
L 85.111739 166.974613 
z
" style="fill:#1f77b4;"/>
   </g>
   <g id="patch_6">
    <path clip-path="url(#p0e2a291762)" d="M 94.262866 235.312092 
L 102.49888 235.312092 
L 102.49888 62.79257 
L 94.262866 62.79257 
z
" style="fill:#1f77b4;"/>
   </g>
   <g id="patch_7">
    <path clip-path="url(#p0e2a291762)" d="M 103.413992 235.312092 
L 111.650006 235.312092 
L 111.650006 58.49957 
L 103.413992 58.49957 
z
" style="fill:#1f77b4;"/>
   </g>
   <g id="patch_8">
    <path clip-path="url(#p0e2a291762)" d="M 112.565119 235.312092 
L 120.801133 235.312092 
L 120.801133 96.658932 
L 112.565119 96.658932 
z
" style="fill:#1f77b4;"/>
   </g>
   <g id="patch_9">
    <path clip-path="url(#p0e2a291762)" d="M 121.716245 235.312092 
L 129.952259 235.312092 
L 129.952259 64.363005 
L 121.716245 64.363005 
z
" style="fill:#1f77b4;"/>
   </g>
   <g id="patch_10">
    <path clip-path="url(#p0e2a291762)" d="M 130.867372 235.312092 
L 139.103385 235.312092 
L 139.103385 227.813036 
L 130.867372 227.813036 
z
" style="fill:#1f77b4;"/>
   </g>
   <g id="patch_11">
    <path clip-path="url(#p0e2a291762)" d="M 140.018498 235.312092 
L 148.254512 235.312092 
L 148.254512 224.363934 
L 140.018498 224.363934 
z
" style="fill:#1f77b4;"/>
   </g>
   <g id="patch_12">
    <path clip-path="url(#p0e2a291762)" d="M 149.169625 235.312092 
L 157.405638 235.312092 
L 157.405638 226.851258 
L 149.169625 226.851258 
z
" style="fill:#1f77b4;"/>
   </g>
   <g id="patch_13">
    <path clip-path="url(#p0e2a291762)" d="M 158.320751 235.312092 
L 166.556765 235.312092 
L 166.556765 218.480332 
L 158.320751 218.480332 
z
" style="fill:#1f77b4;"/>
   </g>
   <g id="patch_14">
    <path clip-path="url(#p0e2a291762)" d="M 167.471877 235.312092 
L 175.707891 235.312092 
L 175.707891 221.315702 
L 167.471877 221.315702 
z
" style="fill:#1f77b4;"/>
   </g>
   <g id="patch_15">
    <path clip-path="url(#p0e2a291762)" d="M 176.623004 235.312092 
L 184.859018 235.312092 
L 184.859018 224.083415 
L 176.623004 224.083415 
z
" style="fill:#1f77b4;"/>
   </g>
   <g id="patch_16">
    <path clip-path="url(#p0e2a291762)" d="M 185.77413 235.312092 
L 194.010144 235.312092 
L 194.010144 228.343237 
L 185.77413 228.343237 
z
" style="fill:#1f77b4;"/>
   </g>
   <g id="patch_17">
    <path clip-path="url(#p0e2a291762)" d="M 194.925257 235.312092 
L 203.161271 235.312092 
L 203.161271 232.035516 
L 194.925257 232.035516 
z
" style="fill:#1f77b4;"/>
   </g>
   <g id="patch_18">
    <path clip-path="url(#p0e2a291762)" d="M 204.076383 235.312092 
L 212.312397 235.312092 
L 212.312397 221.446463 
L 204.076383 221.446463 
z
" style="fill:#1f77b4;"/>
   </g>
   <g id="patch_19">
    <path clip-path="url(#p0e2a291762)" d="M 213.22751 235.312092 
L 221.463524 235.312092 
L 221.463524 232.067003 
L 213.22751 232.067003 
z
" style="fill:#1f77b4;"/>
   </g>
   <g id="patch_20">
    <path clip-path="url(#p0e2a291762)" d="M 222.378636 235.312092 
L 230.61465 235.312092 
L 230.61465 223.428959 
L 222.378636 223.428959 
z
" style="fill:#1f77b4;"/>
   </g>
   <g id="patch_21">
    <path clip-path="url(#p0e2a291762)" d="M 231.529763 235.312092 
L 239.765776 235.312092 
L 239.765776 226.143717 
L 231.529763 226.143717 
z
" style="fill:#1f77b4;"/>
   </g>
   <g id="patch_22">
    <path clip-path="url(#p0e2a291762)" d="M 240.680889 235.312092 
L 248.916903 235.312092 
L 248.916903 223.001546 
L 240.680889 223.001546 
z
" style="fill:#1f77b4;"/>
   </g>
   <g id="patch_23">
    <path clip-path="url(#p0e2a291762)" d="M 249.832016 235.312092 
L 258.068029 235.312092 
L 258.068029 234.923061 
L 249.832016 234.923061 
z
" style="fill:#1f77b4;"/>
   </g>
   <g id="patch_24">
    <path clip-path="url(#p0e2a291762)" d="M 258.983142 235.312092 
L 267.219156 235.312092 
L 267.219156 200.765641 
L 258.983142 200.765641 
z
" style="fill:#1f77b4;"/>
   </g>
   <g id="patch_25">
    <path clip-path="url(#p0e2a291762)" d="M 268.134268 235.312092 
L 276.370282 235.312092 
L 276.370282 229.919527 
L 268.134268 229.919527 
z
" style="fill:#1f77b4;"/>
   </g>
   <g id="patch_26">
    <path clip-path="url(#p0e2a291762)" d="M 277.285395 235.312092 
L 285.521409 235.312092 
L 285.521409 222.567627 
L 277.285395 222.567627 
z
" style="fill:#1f77b4;"/>
   </g>
   <g id="patch_27">
    <path clip-path="url(#p0e2a291762)" d="M 286.436521 235.312092 
L 294.672535 235.312092 
L 294.672535 227.20607 
L 286.436521 227.20607 
z
" style="fill:#1f77b4;"/>
   </g>
   <g id="patch_28">
    <path clip-path="url(#p0e2a291762)" d="M 295.587648 235.312092 
L 303.823662 235.312092 
L 303.823662 216.507855 
L 295.587648 216.507855 
z
" style="fill:#1f77b4;"/>
   </g>
   <g id="patch_29">
    <path clip-path="url(#p0e2a291762)" d="M 304.738774 235.312092 
L 312.974788 235.312092 
L 312.974788 232.301202 
L 304.738774 232.301202 
z
" style="fill:#1f77b4;"/>
   </g>
   <g id="patch_30">
    <path clip-path="url(#p0e2a291762)" d="M 313.889901 235.312092 
L 322.125915 235.312092 
L 322.125915 233.388927 
L 313.889901 233.388927 
z
" style="fill:#1f77b4;"/>
   </g>
   <g id="patch_31">
    <path clip-path="url(#p0e2a291762)" d="M 323.041027 235.312092 
L 331.277041 235.312092 
L 331.277041 217.430599 
L 323.041027 217.430599 
z
" style="fill:#1f77b4;"/>
   </g>
   <g id="patch_32">
    <path clip-path="url(#p0e2a291762)" d="M 332.192154 235.312092 
L 340.428167 235.312092 
L 340.428167 220.402586 
L 332.192154 220.402586 
z
" style="fill:#1f77b4;"/>
   </g>
   <g id="patch_33">
    <path clip-path="url(#p0e2a291762)" d="M 341.34328 235.312092 
L 349.579294 235.312092 
L 349.579294 229.366167 
L 341.34328 229.366167 
z
" style="fill:#1f77b4;"/>
   </g>
   <g id="patch_34">
    <path clip-path="url(#p0e2a291762)" d="M 350.494407 235.312092 
L 358.73042 235.312092 
L 358.73042 222.372981 
L 350.494407 222.372981 
z
" style="fill:#1f77b4;"/>
   </g>
   <g id="patch_35">
    <path clip-path="url(#p0e2a291762)" d="M 359.645533 235.312092 
L 367.881547 235.312092 
L 367.881547 233.979499 
L 359.645533 233.979499 
z
" style="fill:#1f77b4;"/>
   </g>
   <g id="patch_36">
    <path clip-path="url(#p0e2a291762)" d="M 368.796659 235.312092 
L 377.032673 235.312092 
L 377.032673 223.314722 
L 368.796659 223.314722 
z
" style="fill:#1f77b4;"/>
   </g>
   <g id="patch_37">
    <path clip-path="url(#p0e2a291762)" d="M 377.947786 235.312092 
L 386.1838 235.312092 
L 386.1838 33.353091 
L 377.947786 33.353091 
z
" style="fill:#1f77b4;"/>
   </g>
   <g id="patch_38">
    <path clip-path="url(#p0e2a291762)" d="M 387.098912 235.312092 
L 395.334926 235.312092 
L 395.334926 33.353091 
L 387.098912 33.353091 
z
" style="fill:#1f77b4;"/>
   </g>
   <g id="patch_39">
    <path clip-path="url(#p0e2a291762)" d="M 396.250039 235.312092 
L 404.486053 235.312092 
L 404.486053 112.975584 
L 396.250039 112.975584 
z
" style="fill:#1f77b4;"/>
   </g>
   <g id="patch_40">
    <path clip-path="url(#p0e2a291762)" d="M 405.401165 235.312092 
L 413.637179 235.312092 
L 413.637179 112.975584 
L 405.401165 112.975584 
z
" style="fill:#1f77b4;"/>
   </g>
   <g id="patch_41">
    <path clip-path="url(#p0e2a291762)" d="M 414.552292 235.312092 
L 422.788305 235.312092 
L 422.788305 33.354132 
L 414.552292 33.354132 
z
" style="fill:#1f77b4;"/>
   </g>
   <g id="patch_42">
    <path clip-path="url(#p0e2a291762)" d="M 423.703418 235.312092 
L 431.939432 235.312092 
L 431.939432 33.353091 
L 423.703418 33.353091 
z
" style="fill:#1f77b4;"/>
   </g>
   <g id="patch_43">
    <path clip-path="url(#p0e2a291762)" d="M 66.809487 53.31193 
L 75.0455 53.31193 
L 75.0455 33.353091 
L 66.809487 33.353091 
z
" style="fill:#ff7f0e;"/>
   </g>
   <g id="patch_44">
    <path clip-path="url(#p0e2a291762)" d="M 75.960613 59.731197 
L 84.196627 59.731197 
L 84.196627 33.353091 
L 75.960613 33.353091 
z
" style="fill:#ff7f0e;"/>
   </g>
   <g id="patch_45">
    <path clip-path="url(#p0e2a291762)" d="M 85.111739 166.974613 
L 93.347753 166.974613 
L 93.347753 33.353091 
L 85.111739 33.353091 
z
" style="fill:#ff7f0e;"/>
   </g>
   <g id="patch_46">
    <path clip-path="url(#p0e2a291762)" d="M 94.262866 62.79257 
L 102.49888 62.79257 
L 102.49888 33.353091 
L 94.262866 33.353091 
z
" style="fill:#ff7f0e;"/>
   </g>
   <g id="patch_47">
    <path clip-path="url(#p0e2a291762)" d="M 103.413992 58.49957 
L 111.650006 58.49957 
L 111.650006 33.353091 
L 103.413992 33.353091 
z
" style="fill:#ff7f0e;"/>
   </g>
   <g id="patch_48">
    <path clip-path="url(#p0e2a291762)" d="M 112.565119 96.658932 
L 120.801133 96.658932 
L 120.801133 33.353091 
L 112.565119 33.353091 
z
" style="fill:#ff7f0e;"/>
   </g>
   <g id="patch_49">
    <path clip-path="url(#p0e2a291762)" d="M 121.716245 64.363005 
L 129.952259 64.363005 
L 129.952259 33.353091 
L 121.716245 33.353091 
z
" style="fill:#ff7f0e;"/>
   </g>
   <g id="patch_50">
    <path clip-path="url(#p0e2a291762)" d="M 130.867372 227.813036 
L 139.103385 227.813036 
L 139.103385 33.353091 
L 130.867372 33.353091 
z
" style="fill:#ff7f0e;"/>
   </g>
   <g id="patch_51">
    <path clip-path="url(#p0e2a291762)" d="M 140.018498 224.363934 
L 148.254512 224.363934 
L 148.254512 33.353091 
L 140.018498 33.353091 
z
" style="fill:#ff7f0e;"/>
   </g>
   <g id="patch_52">
    <path clip-path="url(#p0e2a291762)" d="M 149.169625 226.851258 
L 157.405638 226.851258 
L 157.405638 33.353091 
L 149.169625 33.353091 
z
" style="fill:#ff7f0e;"/>
   </g>
   <g id="patch_53">
    <path clip-path="url(#p0e2a291762)" d="M 158.320751 218.480332 
L 166.556765 218.480332 
L 166.556765 33.353091 
L 158.320751 33.353091 
z
" style="fill:#ff7f0e;"/>
   </g>
   <g id="patch_54">
    <path clip-path="url(#p0e2a291762)" d="M 167.471877 221.315702 
L 175.707891 221.315702 
L 175.707891 33.353091 
L 167.471877 33.353091 
z
" style="fill:#ff7f0e;"/>
   </g>
   <g id="patch_55">
    <path clip-path="url(#p0e2a291762)" d="M 176.623004 224.083415 
L 184.859018 224.083415 
L 184.859018 33.353091 
L 176.623004 33.353091 
z
" style="fill:#ff7f0e;"/>
   </g>
   <g id="patch_56">
    <path clip-path="url(#p0e2a291762)" d="M 185.77413 228.343237 
L 194.010144 228.343237 
L 194.010144 33.353091 
L 185.77413 33.353091 
z
" style="fill:#ff7f0e;"/>
   </g>
   <g id="patch_57">
    <path clip-path="url(#p0e2a291762)" d="M 194.925257 232.035516 
L 203.161271 232.035516 
L 203.161271 33.353091 
L 194.925257 33.353091 
z
" style="fill:#ff7f0e;"/>
   </g>
   <g id="patch_58">
    <path clip-path="url(#p0e2a291762)" d="M 204.076383 221.446463 
L 212.312397 221.446463 
L 212.312397 33.353091 
L 204.076383 33.353091 
z
" style="fill:#ff7f0e;"/>
   </g>
   <g id="patch_59">
    <path clip-path="url(#p0e2a291762)" d="M 213.22751 232.067003 
L 221.463524 232.067003 
L 221.463524 33.353091 
L 213.22751 33.353091 
z
" style="fill:#ff7f0e;"/>
   </g>
   <g id="patch_60">
    <path clip-path="url(#p0e2a291762)" d="M 222.378636 223.428959 
L 230.61465 223.428959 
L 230.61465 33.353091 
L 222.378636 33.353091 
z
" style="fill:#ff7f0e;"/>
   </g>
   <g id="patch_61">
    <path clip-path="url(#p0e2a291762)" d="M 231.529763 226.143717 
L 239.765776 226.143717 
L 239.765776 33.353091 
L 231.529763 33.353091 
z
" style="fill:#ff7f0e;"/>
   </g>
   <g id="patch_62">
    <path clip-path="url(#p0e2a291762)" d="M 240.680889 223.001546 
L 248.916903 223.001546 
L 248.916903 33.353091 
L 240.680889 33.353091 
z
" style="fill:#ff7f0e;"/>
   </g>
   <g id="patch_63">
    <path clip-path="url(#p0e2a291762)" d="M 249.832016 234.923061 
L 258.068029 234.923061 
L 258.068029 33.353091 
L 249.832016 33.353091 
z
" style="fill:#ff7f0e;"/>
   </g>
   <g id="patch_64">
    <path clip-path="url(#p0e2a291762)" d="M 258.983142 200.765641 
L 267.219156 200.765641 
L 267.219156 33.353091 
L 258.983142 33.353091 
z
" style="fill:#ff7f0e;"/>
   </g>
   <g id="patch_65">
    <path clip-path="url(#p0e2a291762)" d="M 268.134268 229.919527 
L 276.370282 229.919527 
L 276.370282 33.353091 
L 268.134268 33.353091 
z
" style="fill:#ff7f0e;"/>
   </g>
   <g id="patch_66">
    <path clip-path="url(#p0e2a291762)" d="M 277.285395 222.567627 
L 285.521409 222.567627 
L 285.521409 33.353091 
L 277.285395 33.353091 
z
" style="fill:#ff7f0e;"/>
   </g>
   <g id="patch_67">
    <path clip-path="url(#p0e2a291762)" d="M 286.436521 227.20607 
L 294.672535 227.20607 
L 294.672535 33.353091 
L 286.436521 33.353091 
z
" style="fill:#ff7f0e;"/>
   </g>
   <g id="patch_68">
    <path clip-path="url(#p0e2a291762)" d="M 295.587648 216.507855 
L 303.823662 216.507855 
L 303.823662 33.353091 
L 295.587648 33.353091 
z
" style="fill:#ff7f0e;"/>
   </g>
   <g id="patch_69">
    <path clip-path="url(#p0e2a291762)" d="M 304.738774 232.301202 
L 312.974788 232.301202 
L 312.974788 33.353091 
L 304.738774 33.353091 
z
" style="fill:#ff7f0e;"/>
   </g>
   <g id="patch_70">
    <path clip-path="url(#p0e2a291762)" d="M 313.889901 233.388927 
L 322.125915 233.388927 
L 322.125915 33.353091 
L 313.889901 33.353091 
z
" style="fill:#ff7f0e;"/>
   </g>
   <g id="patch_71">
    <path clip-path="url(#p0e2a291762)" d="M 323.041027 217.430599 
L 331.277041 217.430599 
L 331.277041 33.353091 
L 323.041027 33.353091 
z
" style="fill:#ff7f0e;"/>
   </g>
   <g id="patch_72">
    <path clip-path="url(#p0e2a291762)" d="M 332.192154 220.402586 
L 340.428167 220.402586 
L 340.428167 33.353091 
L 332.192154 33.353091 
z
" style="fill:#ff7f0e;"/>
   </g>
   <g id="patch_73">
    <path clip-path="url(#p0e2a291762)" d="M 341.34328 229.366167 
L 349.579294 229.366167 
L 349.579294 33.353091 
L 341.34328 33.353091 
z
" style="fill:#ff7f0e;"/>
   </g>
   <g id="patch_74">
    <path clip-path="url(#p0e2a291762)" d="M 350.494407 222.372981 
L 358.73042 222.372981 
L 358.73042 33.353091 
L 350.494407 33.353091 
z
" style="fill:#ff7f0e;"/>
   </g>
   <g id="patch_75">
    <path clip-path="url(#p0e2a291762)" d="M 359.645533 233.979499 
L 367.881547 233.979499 
L 367.881547 33.353091 
L 359.645533 33.353091 
z
" style="fill:#ff7f0e;"/>
   </g>
   <g id="patch_76">
    <path clip-path="url(#p0e2a291762)" d="M 368.796659 223.314722 
L 377.032673 223.314722 
L 377.032673 33.353091 
L 368.796659 33.353091 
z
" style="fill:#ff7f0e;"/>
   </g>
   <g id="patch_77">
    <path clip-path="url(#p0e2a291762)" d="M 377.947786 33.353091 
L 386.1838 33.353091 
L 386.1838 33.353091 
L 377.947786 33.353091 
z
" style="fill:#ff7f0e;"/>
   </g>
   <g id="patch_78">
    <path clip-path="url(#p0e2a291762)" d="M 387.098912 33.353091 
L 395.334926 33.353091 
L 395.334926 33.353091 
L 387.098912 33.353091 
z
" style="fill:#ff7f0e;"/>
   </g>
   <g id="patch_79">
    <path clip-path="url(#p0e2a291762)" d="M 396.250039 112.975584 
L 404.486053 112.975584 
L 404.486053 33.353091 
L 396.250039 33.353091 
z
" style="fill:#ff7f0e;"/>
   </g>
   <g id="patch_80">
    <path clip-path="url(#p0e2a291762)" d="M 405.401165 112.975584 
L 413.637179 112.975584 
L 413.637179 33.353091 
L 405.401165 33.353091 
z
" style="fill:#ff7f0e;"/>
   </g>
   <g id="patch_81">
    <path clip-path="url(#p0e2a291762)" d="M 414.552292 33.354132 
L 422.788305 33.354132 
L 422.788305 33.353091 
L 414.552292 33.353091 
z
" style="fill:#ff7f0e;"/>
   </g>
   <g id="patch_82">
    <path clip-path="url(#p0e2a291762)" d="M 423.703418 33.353091 
L 431.939432 33.353091 
L 431.939432 33.353091 
L 423.703418 33.353091 
z
" style="fill:#ff7f0e;"/>
   </g>
   <g id="matplotlib.axis_1">
    <g id="xtick_1">
     <g id="line2d_1">
      <defs>
       <path d="M 0 0 
L 0 3.5 
" id="m136ecac68e" style="stroke:#000000;stroke-width:0.8;"/>
      </defs>
      <g>
       <use style="stroke:#000000;stroke-width:0.8;" x="70.927493" xlink:href="#m136ecac68e" y="235.69"/>
      </g>
     </g>
     <g id="text_1">
      <!-- HR -->
      <defs>
       <path d="M 9.8125 72.90625 
L 19.671875 72.90625 
L 19.671875 43.015625 
L 55.515625 43.015625 
L 55.515625 72.90625 
L 65.375 72.90625 
L 65.375 0 
L 55.515625 0 
L 55.515625 34.71875 
L 19.671875 34.71875 
L 19.671875 0 
L 9.8125 0 
z
" id="DejaVuSans-72"/>
       <path d="M 44.390625 34.1875 
Q 47.5625 33.109375 50.5625 29.59375 
Q 53.5625 26.078125 56.59375 19.921875 
L 66.609375 0 
L 56 0 
L 46.6875 18.703125 
Q 43.0625 26.03125 39.671875 28.421875 
Q 36.28125 30.8125 30.421875 30.8125 
L 19.671875 30.8125 
L 19.671875 0 
L 9.8125 0 
L 9.8125 72.90625 
L 32.078125 72.90625 
Q 44.578125 72.90625 50.734375 67.671875 
Q 56.890625 62.453125 56.890625 51.90625 
Q 56.890625 45.015625 53.6875 40.46875 
Q 50.484375 35.9375 44.390625 34.1875 
z
M 19.671875 64.796875 
L 19.671875 38.921875 
L 32.078125 38.921875 
Q 39.203125 38.921875 42.84375 42.21875 
Q 46.484375 45.515625 46.484375 51.90625 
Q 46.484375 58.296875 42.84375 61.546875 
Q 39.203125 64.796875 32.078125 64.796875 
z
" id="DejaVuSans-82"/>
      </defs>
      <g transform="translate(73.686868 257.15875)rotate(-90)scale(0.1 -0.1)">
       <use xlink:href="#DejaVuSans-72"/>
       <use x="75.195312" xlink:href="#DejaVuSans-82"/>
      </g>
     </g>
    </g>
    <g id="xtick_2">
     <g id="line2d_2">
      <g>
       <use style="stroke:#000000;stroke-width:0.8;" x="80.07862" xlink:href="#m136ecac68e" y="235.69"/>
      </g>
     </g>
     <g id="text_2">
      <!-- O2Sat -->
      <defs>
       <path d="M 39.40625 66.21875 
Q 28.65625 66.21875 22.328125 58.203125 
Q 16.015625 50.203125 16.015625 36.375 
Q 16.015625 22.609375 22.328125 14.59375 
Q 28.65625 6.59375 39.40625 6.59375 
Q 50.140625 6.59375 56.421875 14.59375 
Q 62.703125 22.609375 62.703125 36.375 
Q 62.703125 50.203125 56.421875 58.203125 
Q 50.140625 66.21875 39.40625 66.21875 
z
M 39.40625 74.21875 
Q 54.734375 74.21875 63.90625 63.9375 
Q 73.09375 53.65625 73.09375 36.375 
Q 73.09375 19.140625 63.90625 8.859375 
Q 54.734375 -1.421875 39.40625 -1.421875 
Q 24.03125 -1.421875 14.8125 8.828125 
Q 5.609375 19.09375 5.609375 36.375 
Q 5.609375 53.65625 14.8125 63.9375 
Q 24.03125 74.21875 39.40625 74.21875 
z
" id="DejaVuSans-79"/>
       <path d="M 19.1875 8.296875 
L 53.609375 8.296875 
L 53.609375 0 
L 7.328125 0 
L 7.328125 8.296875 
Q 12.9375 14.109375 22.625 23.890625 
Q 32.328125 33.6875 34.8125 36.53125 
Q 39.546875 41.84375 41.421875 45.53125 
Q 43.3125 49.21875 43.3125 52.78125 
Q 43.3125 58.59375 39.234375 62.25 
Q 35.15625 65.921875 28.609375 65.921875 
Q 23.96875 65.921875 18.8125 64.3125 
Q 13.671875 62.703125 7.8125 59.421875 
L 7.8125 69.390625 
Q 13.765625 71.78125 18.9375 73 
Q 24.125 74.21875 28.421875 74.21875 
Q 39.75 74.21875 46.484375 68.546875 
Q 53.21875 62.890625 53.21875 53.421875 
Q 53.21875 48.921875 51.53125 44.890625 
Q 49.859375 40.875 45.40625 35.40625 
Q 44.1875 33.984375 37.640625 27.21875 
Q 31.109375 20.453125 19.1875 8.296875 
z
" id="DejaVuSans-50"/>
       <path d="M 53.515625 70.515625 
L 53.515625 60.890625 
Q 47.90625 63.578125 42.921875 64.890625 
Q 37.9375 66.21875 33.296875 66.21875 
Q 25.25 66.21875 20.875 63.09375 
Q 16.5 59.96875 16.5 54.203125 
Q 16.5 49.359375 19.40625 46.890625 
Q 22.3125 44.4375 30.421875 42.921875 
L 36.375 41.703125 
Q 47.40625 39.59375 52.65625 34.296875 
Q 57.90625 29 57.90625 20.125 
Q 57.90625 9.515625 50.796875 4.046875 
Q 43.703125 -1.421875 29.984375 -1.421875 
Q 24.8125 -1.421875 18.96875 -0.25 
Q 13.140625 0.921875 6.890625 3.21875 
L 6.890625 13.375 
Q 12.890625 10.015625 18.65625 8.296875 
Q 24.421875 6.59375 29.984375 6.59375 
Q 38.421875 6.59375 43.015625 9.90625 
Q 47.609375 13.234375 47.609375 19.390625 
Q 47.609375 24.75 44.3125 27.78125 
Q 41.015625 30.8125 33.5 32.328125 
L 27.484375 33.5 
Q 16.453125 35.6875 11.515625 40.375 
Q 6.59375 45.0625 6.59375 53.421875 
Q 6.59375 63.09375 13.40625 68.65625 
Q 20.21875 74.21875 32.171875 74.21875 
Q 37.3125 74.21875 42.625 73.28125 
Q 47.953125 72.359375 53.515625 70.515625 
z
" id="DejaVuSans-83"/>
       <path d="M 34.28125 27.484375 
Q 23.390625 27.484375 19.1875 25 
Q 14.984375 22.515625 14.984375 16.5 
Q 14.984375 11.71875 18.140625 8.90625 
Q 21.296875 6.109375 26.703125 6.109375 
Q 34.1875 6.109375 38.703125 11.40625 
Q 43.21875 16.703125 43.21875 25.484375 
L 43.21875 27.484375 
z
M 52.203125 31.203125 
L 52.203125 0 
L 43.21875 0 
L 43.21875 8.296875 
Q 40.140625 3.328125 35.546875 0.953125 
Q 30.953125 -1.421875 24.3125 -1.421875 
Q 15.921875 -1.421875 10.953125 3.296875 
Q 6 8.015625 6 15.921875 
Q 6 25.140625 12.171875 29.828125 
Q 18.359375 34.515625 30.609375 34.515625 
L 43.21875 34.515625 
L 43.21875 35.40625 
Q 43.21875 41.609375 39.140625 45 
Q 35.0625 48.390625 27.6875 48.390625 
Q 23 48.390625 18.546875 47.265625 
Q 14.109375 46.140625 10.015625 43.890625 
L 10.015625 52.203125 
Q 14.9375 54.109375 19.578125 55.046875 
Q 24.21875 56 28.609375 56 
Q 40.484375 56 46.34375 49.84375 
Q 52.203125 43.703125 52.203125 31.203125 
z
" id="DejaVuSans-97"/>
       <path d="M 18.3125 70.21875 
L 18.3125 54.6875 
L 36.8125 54.6875 
L 36.8125 47.703125 
L 18.3125 47.703125 
L 18.3125 18.015625 
Q 18.3125 11.328125 20.140625 9.421875 
Q 21.96875 7.515625 27.59375 7.515625 
L 36.8125 7.515625 
L 36.8125 0 
L 27.59375 0 
Q 17.1875 0 13.234375 3.875 
Q 9.28125 7.765625 9.28125 18.015625 
L 9.28125 47.703125 
L 2.6875 47.703125 
L 2.6875 54.6875 
L 9.28125 54.6875 
L 9.28125 70.21875 
z
" id="DejaVuSans-116"/>
      </defs>
      <g transform="translate(82.837995 273.32125)rotate(-90)scale(0.1 -0.1)">
       <use xlink:href="#DejaVuSans-79"/>
       <use x="78.710938" xlink:href="#DejaVuSans-50"/>
       <use x="142.333984" xlink:href="#DejaVuSans-83"/>
       <use x="205.810547" xlink:href="#DejaVuSans-97"/>
       <use x="267.089844" xlink:href="#DejaVuSans-116"/>
      </g>
     </g>
    </g>
    <g id="xtick_3">
     <g id="line2d_3">
      <g>
       <use style="stroke:#000000;stroke-width:0.8;" x="89.229746" xlink:href="#m136ecac68e" y="235.69"/>
      </g>
     </g>
     <g id="text_3">
      <!-- Temp -->
      <defs>
       <path d="M -0.296875 72.90625 
L 61.375 72.90625 
L 61.375 64.59375 
L 35.5 64.59375 
L 35.5 0 
L 25.59375 0 
L 25.59375 64.59375 
L -0.296875 64.59375 
z
" id="DejaVuSans-84"/>
       <path d="M 56.203125 29.59375 
L 56.203125 25.203125 
L 14.890625 25.203125 
Q 15.484375 15.921875 20.484375 11.0625 
Q 25.484375 6.203125 34.421875 6.203125 
Q 39.59375 6.203125 44.453125 7.46875 
Q 49.3125 8.734375 54.109375 11.28125 
L 54.109375 2.78125 
Q 49.265625 0.734375 44.1875 -0.34375 
Q 39.109375 -1.421875 33.890625 -1.421875 
Q 20.796875 -1.421875 13.15625 6.1875 
Q 5.515625 13.8125 5.515625 26.8125 
Q 5.515625 40.234375 12.765625 48.109375 
Q 20.015625 56 32.328125 56 
Q 43.359375 56 49.78125 48.890625 
Q 56.203125 41.796875 56.203125 29.59375 
z
M 47.21875 32.234375 
Q 47.125 39.59375 43.09375 43.984375 
Q 39.0625 48.390625 32.421875 48.390625 
Q 24.90625 48.390625 20.390625 44.140625 
Q 15.875 39.890625 15.1875 32.171875 
z
" id="DejaVuSans-101"/>
       <path d="M 52 44.1875 
Q 55.375 50.25 60.0625 53.125 
Q 64.75 56 71.09375 56 
Q 79.640625 56 84.28125 50.015625 
Q 88.921875 44.046875 88.921875 33.015625 
L 88.921875 0 
L 79.890625 0 
L 79.890625 32.71875 
Q 79.890625 40.578125 77.09375 44.375 
Q 74.3125 48.1875 68.609375 48.1875 
Q 61.625 48.1875 57.5625 43.546875 
Q 53.515625 38.921875 53.515625 30.90625 
L 53.515625 0 
L 44.484375 0 
L 44.484375 32.71875 
Q 44.484375 40.625 41.703125 44.40625 
Q 38.921875 48.1875 33.109375 48.1875 
Q 26.21875 48.1875 22.15625 43.53125 
Q 18.109375 38.875 18.109375 30.90625 
L 18.109375 0 
L 9.078125 0 
L 9.078125 54.6875 
L 18.109375 54.6875 
L 18.109375 46.1875 
Q 21.1875 51.21875 25.484375 53.609375 
Q 29.78125 56 35.6875 56 
Q 41.65625 56 45.828125 52.96875 
Q 50 49.953125 52 44.1875 
z
" id="DejaVuSans-109"/>
       <path d="M 18.109375 8.203125 
L 18.109375 -20.796875 
L 9.078125 -20.796875 
L 9.078125 54.6875 
L 18.109375 54.6875 
L 18.109375 46.390625 
Q 20.953125 51.265625 25.265625 53.625 
Q 29.59375 56 35.59375 56 
Q 45.5625 56 51.78125 48.09375 
Q 58.015625 40.1875 58.015625 27.296875 
Q 58.015625 14.40625 51.78125 6.484375 
Q 45.5625 -1.421875 35.59375 -1.421875 
Q 29.59375 -1.421875 25.265625 0.953125 
Q 20.953125 3.328125 18.109375 8.203125 
z
M 48.6875 27.296875 
Q 48.6875 37.203125 44.609375 42.84375 
Q 40.53125 48.484375 33.40625 48.484375 
Q 26.265625 48.484375 22.1875 42.84375 
Q 18.109375 37.203125 18.109375 27.296875 
Q 18.109375 17.390625 22.1875 11.75 
Q 26.265625 6.109375 33.40625 6.109375 
Q 40.53125 6.109375 44.609375 11.75 
Q 48.6875 17.390625 48.6875 27.296875 
z
" id="DejaVuSans-112"/>
      </defs>
      <g transform="translate(91.989121 271.013438)rotate(-90)scale(0.1 -0.1)">
       <use xlink:href="#DejaVuSans-84"/>
       <use x="60.818359" xlink:href="#DejaVuSans-101"/>
       <use x="122.341797" xlink:href="#DejaVuSans-109"/>
       <use x="219.753906" xlink:href="#DejaVuSans-112"/>
      </g>
     </g>
    </g>
    <g id="xtick_4">
     <g id="line2d_4">
      <g>
       <use style="stroke:#000000;stroke-width:0.8;" x="98.380873" xlink:href="#m136ecac68e" y="235.69"/>
      </g>
     </g>
     <g id="text_4">
      <!-- SBP -->
      <defs>
       <path d="M 19.671875 34.8125 
L 19.671875 8.109375 
L 35.5 8.109375 
Q 43.453125 8.109375 47.28125 11.40625 
Q 51.125 14.703125 51.125 21.484375 
Q 51.125 28.328125 47.28125 31.5625 
Q 43.453125 34.8125 35.5 34.8125 
z
M 19.671875 64.796875 
L 19.671875 42.828125 
L 34.28125 42.828125 
Q 41.5 42.828125 45.03125 45.53125 
Q 48.578125 48.25 48.578125 53.8125 
Q 48.578125 59.328125 45.03125 62.0625 
Q 41.5 64.796875 34.28125 64.796875 
z
M 9.8125 72.90625 
L 35.015625 72.90625 
Q 46.296875 72.90625 52.390625 68.21875 
Q 58.5 63.53125 58.5 54.890625 
Q 58.5 48.1875 55.375 44.234375 
Q 52.25 40.28125 46.1875 39.3125 
Q 53.46875 37.75 57.5 32.78125 
Q 61.53125 27.828125 61.53125 20.40625 
Q 61.53125 10.640625 54.890625 5.3125 
Q 48.25 0 35.984375 0 
L 9.8125 0 
z
" id="DejaVuSans-66"/>
       <path d="M 19.671875 64.796875 
L 19.671875 37.40625 
L 32.078125 37.40625 
Q 38.96875 37.40625 42.71875 40.96875 
Q 46.484375 44.53125 46.484375 51.125 
Q 46.484375 57.671875 42.71875 61.234375 
Q 38.96875 64.796875 32.078125 64.796875 
z
M 9.8125 72.90625 
L 32.078125 72.90625 
Q 44.34375 72.90625 50.609375 67.359375 
Q 56.890625 61.8125 56.890625 51.125 
Q 56.890625 40.328125 50.609375 34.8125 
Q 44.34375 29.296875 32.078125 29.296875 
L 19.671875 29.296875 
L 19.671875 0 
L 9.8125 0 
z
" id="DejaVuSans-80"/>
      </defs>
      <g transform="translate(101.140248 261.929062)rotate(-90)scale(0.1 -0.1)">
       <use xlink:href="#DejaVuSans-83"/>
       <use x="63.476562" xlink:href="#DejaVuSans-66"/>
       <use x="132.080078" xlink:href="#DejaVuSans-80"/>
      </g>
     </g>
    </g>
    <g id="xtick_5">
     <g id="line2d_5">
      <g>
       <use style="stroke:#000000;stroke-width:0.8;" x="107.531999" xlink:href="#m136ecac68e" y="235.69"/>
      </g>
     </g>
     <g id="text_5">
      <!-- MAP -->
      <defs>
       <path d="M 9.8125 72.90625 
L 24.515625 72.90625 
L 43.109375 23.296875 
L 61.8125 72.90625 
L 76.515625 72.90625 
L 76.515625 0 
L 66.890625 0 
L 66.890625 64.015625 
L 48.09375 14.015625 
L 38.1875 14.015625 
L 19.390625 64.015625 
L 19.390625 0 
L 9.8125 0 
z
" id="DejaVuSans-77"/>
       <path d="M 34.1875 63.1875 
L 20.796875 26.90625 
L 47.609375 26.90625 
z
M 28.609375 72.90625 
L 39.796875 72.90625 
L 67.578125 0 
L 57.328125 0 
L 50.6875 18.703125 
L 17.828125 18.703125 
L 11.1875 0 
L 0.78125 0 
z
" id="DejaVuSans-65"/>
      </defs>
      <g transform="translate(110.291374 264.188437)rotate(-90)scale(0.1 -0.1)">
       <use xlink:href="#DejaVuSans-77"/>
       <use x="86.279297" xlink:href="#DejaVuSans-65"/>
       <use x="154.6875" xlink:href="#DejaVuSans-80"/>
      </g>
     </g>
    </g>
    <g id="xtick_6">
     <g id="line2d_6">
      <g>
       <use style="stroke:#000000;stroke-width:0.8;" x="116.683126" xlink:href="#m136ecac68e" y="235.69"/>
      </g>
     </g>
     <g id="text_6">
      <!-- DBP -->
      <defs>
       <path d="M 19.671875 64.796875 
L 19.671875 8.109375 
L 31.59375 8.109375 
Q 46.6875 8.109375 53.6875 14.9375 
Q 60.6875 21.78125 60.6875 36.53125 
Q 60.6875 51.171875 53.6875 57.984375 
Q 46.6875 64.796875 31.59375 64.796875 
z
M 9.8125 72.90625 
L 30.078125 72.90625 
Q 51.265625 72.90625 61.171875 64.09375 
Q 71.09375 55.28125 71.09375 36.53125 
Q 71.09375 17.671875 61.125 8.828125 
Q 51.171875 0 30.078125 0 
L 9.8125 0 
z
" id="DejaVuSans-68"/>
      </defs>
      <g transform="translate(119.442501 263.280625)rotate(-90)scale(0.1 -0.1)">
       <use xlink:href="#DejaVuSans-68"/>
       <use x="77.001953" xlink:href="#DejaVuSans-66"/>
       <use x="145.605469" xlink:href="#DejaVuSans-80"/>
      </g>
     </g>
    </g>
    <g id="xtick_7">
     <g id="line2d_7">
      <g>
       <use style="stroke:#000000;stroke-width:0.8;" x="125.834252" xlink:href="#m136ecac68e" y="235.69"/>
      </g>
     </g>
     <g id="text_7">
      <!-- Resp -->
      <defs>
       <path d="M 44.28125 53.078125 
L 44.28125 44.578125 
Q 40.484375 46.53125 36.375 47.5 
Q 32.28125 48.484375 27.875 48.484375 
Q 21.1875 48.484375 17.84375 46.4375 
Q 14.5 44.390625 14.5 40.28125 
Q 14.5 37.15625 16.890625 35.375 
Q 19.28125 33.59375 26.515625 31.984375 
L 29.59375 31.296875 
Q 39.15625 29.25 43.1875 25.515625 
Q 47.21875 21.78125 47.21875 15.09375 
Q 47.21875 7.46875 41.1875 3.015625 
Q 35.15625 -1.421875 24.609375 -1.421875 
Q 20.21875 -1.421875 15.453125 -0.5625 
Q 10.6875 0.296875 5.421875 2 
L 5.421875 11.28125 
Q 10.40625 8.6875 15.234375 7.390625 
Q 20.0625 6.109375 24.8125 6.109375 
Q 31.15625 6.109375 34.5625 8.28125 
Q 37.984375 10.453125 37.984375 14.40625 
Q 37.984375 18.0625 35.515625 20.015625 
Q 33.0625 21.96875 24.703125 23.78125 
L 21.578125 24.515625 
Q 13.234375 26.265625 9.515625 29.90625 
Q 5.8125 33.546875 5.8125 39.890625 
Q 5.8125 47.609375 11.28125 51.796875 
Q 16.75 56 26.8125 56 
Q 31.78125 56 36.171875 55.265625 
Q 40.578125 54.546875 44.28125 53.078125 
z
" id="DejaVuSans-115"/>
      </defs>
      <g transform="translate(128.593627 267.343125)rotate(-90)scale(0.1 -0.1)">
       <use xlink:href="#DejaVuSans-82"/>
       <use x="69.419922" xlink:href="#DejaVuSans-101"/>
       <use x="130.943359" xlink:href="#DejaVuSans-115"/>
       <use x="183.042969" xlink:href="#DejaVuSans-112"/>
      </g>
     </g>
    </g>
    <g id="xtick_8">
     <g id="line2d_8">
      <g>
       <use style="stroke:#000000;stroke-width:0.8;" x="134.985379" xlink:href="#m136ecac68e" y="235.69"/>
      </g>
     </g>
     <g id="text_8">
      <!-- EtCO2 -->
      <defs>
       <path d="M 9.8125 72.90625 
L 55.90625 72.90625 
L 55.90625 64.59375 
L 19.671875 64.59375 
L 19.671875 43.015625 
L 54.390625 43.015625 
L 54.390625 34.71875 
L 19.671875 34.71875 
L 19.671875 8.296875 
L 56.78125 8.296875 
L 56.78125 0 
L 9.8125 0 
z
" id="DejaVuSans-69"/>
       <path d="M 64.40625 67.28125 
L 64.40625 56.890625 
Q 59.421875 61.53125 53.78125 63.8125 
Q 48.140625 66.109375 41.796875 66.109375 
Q 29.296875 66.109375 22.65625 58.46875 
Q 16.015625 50.828125 16.015625 36.375 
Q 16.015625 21.96875 22.65625 14.328125 
Q 29.296875 6.6875 41.796875 6.6875 
Q 48.140625 6.6875 53.78125 8.984375 
Q 59.421875 11.28125 64.40625 15.921875 
L 64.40625 5.609375 
Q 59.234375 2.09375 53.4375 0.328125 
Q 47.65625 -1.421875 41.21875 -1.421875 
Q 24.65625 -1.421875 15.125 8.703125 
Q 5.609375 18.84375 5.609375 36.375 
Q 5.609375 53.953125 15.125 64.078125 
Q 24.65625 74.21875 41.21875 74.21875 
Q 47.75 74.21875 53.53125 72.484375 
Q 59.328125 70.75 64.40625 67.28125 
z
" id="DejaVuSans-67"/>
      </defs>
      <g transform="translate(137.744754 274.14625)rotate(-90)scale(0.1 -0.1)">
       <use xlink:href="#DejaVuSans-69"/>
       <use x="63.183594" xlink:href="#DejaVuSans-116"/>
       <use x="102.392578" xlink:href="#DejaVuSans-67"/>
       <use x="172.216797" xlink:href="#DejaVuSans-79"/>
       <use x="250.927734" xlink:href="#DejaVuSans-50"/>
      </g>
     </g>
    </g>
    <g id="xtick_9">
     <g id="line2d_9">
      <g>
       <use style="stroke:#000000;stroke-width:0.8;" x="144.136505" xlink:href="#m136ecac68e" y="235.69"/>
      </g>
     </g>
     <g id="text_9">
      <!-- BaseExcess -->
      <defs>
       <path d="M 54.890625 54.6875 
L 35.109375 28.078125 
L 55.90625 0 
L 45.3125 0 
L 29.390625 21.484375 
L 13.484375 0 
L 2.875 0 
L 24.125 28.609375 
L 4.6875 54.6875 
L 15.28125 54.6875 
L 29.78125 35.203125 
L 44.28125 54.6875 
z
" id="DejaVuSans-120"/>
       <path d="M 48.78125 52.59375 
L 48.78125 44.1875 
Q 44.96875 46.296875 41.140625 47.34375 
Q 37.3125 48.390625 33.40625 48.390625 
Q 24.65625 48.390625 19.8125 42.84375 
Q 14.984375 37.3125 14.984375 27.296875 
Q 14.984375 17.28125 19.8125 11.734375 
Q 24.65625 6.203125 33.40625 6.203125 
Q 37.3125 6.203125 41.140625 7.25 
Q 44.96875 8.296875 48.78125 10.40625 
L 48.78125 2.09375 
Q 45.015625 0.34375 40.984375 -0.53125 
Q 36.96875 -1.421875 32.421875 -1.421875 
Q 20.0625 -1.421875 12.78125 6.34375 
Q 5.515625 14.109375 5.515625 27.296875 
Q 5.515625 40.671875 12.859375 48.328125 
Q 20.21875 56 33.015625 56 
Q 37.15625 56 41.109375 55.140625 
Q 45.0625 54.296875 48.78125 52.59375 
z
" id="DejaVuSans-99"/>
      </defs>
      <g transform="translate(146.89588 301.347812)rotate(-90)scale(0.1 -0.1)">
       <use xlink:href="#DejaVuSans-66"/>
       <use x="68.603516" xlink:href="#DejaVuSans-97"/>
       <use x="129.882812" xlink:href="#DejaVuSans-115"/>
       <use x="181.982422" xlink:href="#DejaVuSans-101"/>
       <use x="243.505859" xlink:href="#DejaVuSans-69"/>
       <use x="306.689453" xlink:href="#DejaVuSans-120"/>
       <use x="365.853516" xlink:href="#DejaVuSans-99"/>
       <use x="420.833984" xlink:href="#DejaVuSans-101"/>
       <use x="482.357422" xlink:href="#DejaVuSans-115"/>
       <use x="534.457031" xlink:href="#DejaVuSans-115"/>
      </g>
     </g>
    </g>
    <g id="xtick_10">
     <g id="line2d_10">
      <g>
       <use style="stroke:#000000;stroke-width:0.8;" x="153.287631" xlink:href="#m136ecac68e" y="235.69"/>
      </g>
     </g>
     <g id="text_10">
      <!-- HCO3 -->
      <defs>
       <path d="M 40.578125 39.3125 
Q 47.65625 37.796875 51.625 33 
Q 55.609375 28.21875 55.609375 21.1875 
Q 55.609375 10.40625 48.1875 4.484375 
Q 40.765625 -1.421875 27.09375 -1.421875 
Q 22.515625 -1.421875 17.65625 -0.515625 
Q 12.796875 0.390625 7.625 2.203125 
L 7.625 11.71875 
Q 11.71875 9.328125 16.59375 8.109375 
Q 21.484375 6.890625 26.8125 6.890625 
Q 36.078125 6.890625 40.9375 10.546875 
Q 45.796875 14.203125 45.796875 21.1875 
Q 45.796875 27.640625 41.28125 31.265625 
Q 36.765625 34.90625 28.71875 34.90625 
L 20.21875 34.90625 
L 20.21875 43.015625 
L 29.109375 43.015625 
Q 36.375 43.015625 40.234375 45.921875 
Q 44.09375 48.828125 44.09375 54.296875 
Q 44.09375 59.90625 40.109375 62.90625 
Q 36.140625 65.921875 28.71875 65.921875 
Q 24.65625 65.921875 20.015625 65.03125 
Q 15.375 64.15625 9.8125 62.3125 
L 9.8125 71.09375 
Q 15.4375 72.65625 20.34375 73.4375 
Q 25.25 74.21875 29.59375 74.21875 
Q 40.828125 74.21875 47.359375 69.109375 
Q 53.90625 64.015625 53.90625 55.328125 
Q 53.90625 49.265625 50.4375 45.09375 
Q 46.96875 40.921875 40.578125 39.3125 
z
" id="DejaVuSans-51"/>
      </defs>
      <g transform="translate(156.047006 271.4275)rotate(-90)scale(0.1 -0.1)">
       <use xlink:href="#DejaVuSans-72"/>
       <use x="75.195312" xlink:href="#DejaVuSans-67"/>
       <use x="145.019531" xlink:href="#DejaVuSans-79"/>
       <use x="223.730469" xlink:href="#DejaVuSans-51"/>
      </g>
     </g>
    </g>
    <g id="xtick_11">
     <g id="line2d_11">
      <g>
       <use style="stroke:#000000;stroke-width:0.8;" x="162.438758" xlink:href="#m136ecac68e" y="235.69"/>
      </g>
     </g>
     <g id="text_11">
      <!-- FiO2 -->
      <defs>
       <path d="M 9.8125 72.90625 
L 51.703125 72.90625 
L 51.703125 64.59375 
L 19.671875 64.59375 
L 19.671875 43.109375 
L 48.578125 43.109375 
L 48.578125 34.8125 
L 19.671875 34.8125 
L 19.671875 0 
L 9.8125 0 
z
" id="DejaVuSans-70"/>
       <path d="M 9.421875 54.6875 
L 18.40625 54.6875 
L 18.40625 0 
L 9.421875 0 
z
M 9.421875 75.984375 
L 18.40625 75.984375 
L 18.40625 64.59375 
L 9.421875 64.59375 
z
" id="DejaVuSans-105"/>
      </defs>
      <g transform="translate(165.198133 265.443125)rotate(-90)scale(0.1 -0.1)">
       <use xlink:href="#DejaVuSans-70"/>
       <use x="57.410156" xlink:href="#DejaVuSans-105"/>
       <use x="85.193359" xlink:href="#DejaVuSans-79"/>
       <use x="163.904297" xlink:href="#DejaVuSans-50"/>
      </g>
     </g>
    </g>
    <g id="xtick_12">
     <g id="line2d_12">
      <g>
       <use style="stroke:#000000;stroke-width:0.8;" x="171.589884" xlink:href="#m136ecac68e" y="235.69"/>
      </g>
     </g>
     <g id="text_12">
      <!-- pH -->
      <g transform="translate(174.349259 256.55875)rotate(-90)scale(0.1 -0.1)">
       <use xlink:href="#DejaVuSans-112"/>
       <use x="63.476562" xlink:href="#DejaVuSans-72"/>
      </g>
     </g>
    </g>
    <g id="xtick_13">
     <g id="line2d_13">
      <g>
       <use style="stroke:#000000;stroke-width:0.8;" x="180.741011" xlink:href="#m136ecac68e" y="235.69"/>
      </g>
     </g>
     <g id="text_13">
      <!-- PaCO2 -->
      <g transform="translate(183.500386 276.05875)rotate(-90)scale(0.1 -0.1)">
       <use xlink:href="#DejaVuSans-80"/>
       <use x="60.240234" xlink:href="#DejaVuSans-97"/>
       <use x="121.519531" xlink:href="#DejaVuSans-67"/>
       <use x="191.34375" xlink:href="#DejaVuSans-79"/>
       <use x="270.054688" xlink:href="#DejaVuSans-50"/>
      </g>
     </g>
    </g>
    <g id="xtick_14">
     <g id="line2d_14">
      <g>
       <use style="stroke:#000000;stroke-width:0.8;" x="189.892137" xlink:href="#m136ecac68e" y="235.69"/>
      </g>
     </g>
     <g id="text_14">
      <!-- SaO2 -->
      <g transform="translate(192.651512 269.400937)rotate(-90)scale(0.1 -0.1)">
       <use xlink:href="#DejaVuSans-83"/>
       <use x="63.476562" xlink:href="#DejaVuSans-97"/>
       <use x="124.755859" xlink:href="#DejaVuSans-79"/>
       <use x="203.466797" xlink:href="#DejaVuSans-50"/>
      </g>
     </g>
    </g>
    <g id="xtick_15">
     <g id="line2d_15">
      <g>
       <use style="stroke:#000000;stroke-width:0.8;" x="199.043264" xlink:href="#m136ecac68e" y="235.69"/>
      </g>
     </g>
     <g id="text_15">
      <!-- AST -->
      <g transform="translate(201.802639 261.986875)rotate(-90)scale(0.1 -0.1)">
       <use xlink:href="#DejaVuSans-65"/>
       <use x="68.408203" xlink:href="#DejaVuSans-83"/>
       <use x="131.884766" xlink:href="#DejaVuSans-84"/>
      </g>
     </g>
    </g>
    <g id="xtick_16">
     <g id="line2d_16">
      <g>
       <use style="stroke:#000000;stroke-width:0.8;" x="208.19439" xlink:href="#m136ecac68e" y="235.69"/>
      </g>
     </g>
     <g id="text_16">
      <!-- BUN -->
      <defs>
       <path d="M 8.6875 72.90625 
L 18.609375 72.90625 
L 18.609375 28.609375 
Q 18.609375 16.890625 22.84375 11.734375 
Q 27.09375 6.59375 36.625 6.59375 
Q 46.09375 6.59375 50.34375 11.734375 
Q 54.59375 16.890625 54.59375 28.609375 
L 54.59375 72.90625 
L 64.5 72.90625 
L 64.5 27.390625 
Q 64.5 13.140625 57.4375 5.859375 
Q 50.390625 -1.421875 36.625 -1.421875 
Q 22.796875 -1.421875 15.734375 5.859375 
Q 8.6875 13.140625 8.6875 27.390625 
z
" id="DejaVuSans-85"/>
       <path d="M 9.8125 72.90625 
L 23.09375 72.90625 
L 55.421875 11.921875 
L 55.421875 72.90625 
L 64.984375 72.90625 
L 64.984375 0 
L 51.703125 0 
L 19.390625 60.984375 
L 19.390625 0 
L 9.8125 0 
z
" id="DejaVuSans-78"/>
      </defs>
      <g transform="translate(210.953765 264.350937)rotate(-90)scale(0.1 -0.1)">
       <use xlink:href="#DejaVuSans-66"/>
       <use x="68.603516" xlink:href="#DejaVuSans-85"/>
       <use x="141.796875" xlink:href="#DejaVuSans-78"/>
      </g>
     </g>
    </g>
    <g id="xtick_17">
     <g id="line2d_17">
      <g>
       <use style="stroke:#000000;stroke-width:0.8;" x="217.345517" xlink:href="#m136ecac68e" y="235.69"/>
      </g>
     </g>
     <g id="text_17">
      <!-- Alkalinephos -->
      <defs>
       <path d="M 9.421875 75.984375 
L 18.40625 75.984375 
L 18.40625 0 
L 9.421875 0 
z
" id="DejaVuSans-108"/>
       <path d="M 9.078125 75.984375 
L 18.109375 75.984375 
L 18.109375 31.109375 
L 44.921875 54.6875 
L 56.390625 54.6875 
L 27.390625 29.109375 
L 57.625 0 
L 45.90625 0 
L 18.109375 26.703125 
L 18.109375 0 
L 9.078125 0 
z
" id="DejaVuSans-107"/>
       <path d="M 54.890625 33.015625 
L 54.890625 0 
L 45.90625 0 
L 45.90625 32.71875 
Q 45.90625 40.484375 42.875 44.328125 
Q 39.84375 48.1875 33.796875 48.1875 
Q 26.515625 48.1875 22.3125 43.546875 
Q 18.109375 38.921875 18.109375 30.90625 
L 18.109375 0 
L 9.078125 0 
L 9.078125 54.6875 
L 18.109375 54.6875 
L 18.109375 46.1875 
Q 21.34375 51.125 25.703125 53.5625 
Q 30.078125 56 35.796875 56 
Q 45.21875 56 50.046875 50.171875 
Q 54.890625 44.34375 54.890625 33.015625 
z
" id="DejaVuSans-110"/>
       <path d="M 54.890625 33.015625 
L 54.890625 0 
L 45.90625 0 
L 45.90625 32.71875 
Q 45.90625 40.484375 42.875 44.328125 
Q 39.84375 48.1875 33.796875 48.1875 
Q 26.515625 48.1875 22.3125 43.546875 
Q 18.109375 38.921875 18.109375 30.90625 
L 18.109375 0 
L 9.078125 0 
L 9.078125 75.984375 
L 18.109375 75.984375 
L 18.109375 46.1875 
Q 21.34375 51.125 25.703125 53.5625 
Q 30.078125 56 35.796875 56 
Q 45.21875 56 50.046875 50.171875 
Q 54.890625 44.34375 54.890625 33.015625 
z
" id="DejaVuSans-104"/>
       <path d="M 30.609375 48.390625 
Q 23.390625 48.390625 19.1875 42.75 
Q 14.984375 37.109375 14.984375 27.296875 
Q 14.984375 17.484375 19.15625 11.84375 
Q 23.34375 6.203125 30.609375 6.203125 
Q 37.796875 6.203125 41.984375 11.859375 
Q 46.1875 17.53125 46.1875 27.296875 
Q 46.1875 37.015625 41.984375 42.703125 
Q 37.796875 48.390625 30.609375 48.390625 
z
M 30.609375 56 
Q 42.328125 56 49.015625 48.375 
Q 55.71875 40.765625 55.71875 27.296875 
Q 55.71875 13.875 49.015625 6.21875 
Q 42.328125 -1.421875 30.609375 -1.421875 
Q 18.84375 -1.421875 12.171875 6.21875 
Q 5.515625 13.875 5.515625 27.296875 
Q 5.515625 40.765625 12.171875 48.375 
Q 18.84375 56 30.609375 56 
z
" id="DejaVuSans-111"/>
      </defs>
      <g transform="translate(220.104892 306.286875)rotate(-90)scale(0.1 -0.1)">
       <use xlink:href="#DejaVuSans-65"/>
       <use x="68.408203" xlink:href="#DejaVuSans-108"/>
       <use x="96.191406" xlink:href="#DejaVuSans-107"/>
       <use x="154.085938" xlink:href="#DejaVuSans-97"/>
       <use x="215.365234" xlink:href="#DejaVuSans-108"/>
       <use x="243.148438" xlink:href="#DejaVuSans-105"/>
       <use x="270.931641" xlink:href="#DejaVuSans-110"/>
       <use x="334.310547" xlink:href="#DejaVuSans-101"/>
       <use x="395.833984" xlink:href="#DejaVuSans-112"/>
       <use x="459.310547" xlink:href="#DejaVuSans-104"/>
       <use x="522.689453" xlink:href="#DejaVuSans-111"/>
       <use x="583.871094" xlink:href="#DejaVuSans-115"/>
      </g>
     </g>
    </g>
    <g id="xtick_18">
     <g id="line2d_18">
      <g>
       <use style="stroke:#000000;stroke-width:0.8;" x="226.496643" xlink:href="#m136ecac68e" y="235.69"/>
      </g>
     </g>
     <g id="text_18">
      <!-- Calcium -->
      <defs>
       <path d="M 8.5 21.578125 
L 8.5 54.6875 
L 17.484375 54.6875 
L 17.484375 21.921875 
Q 17.484375 14.15625 20.5 10.265625 
Q 23.53125 6.390625 29.59375 6.390625 
Q 36.859375 6.390625 41.078125 11.03125 
Q 45.3125 15.671875 45.3125 23.6875 
L 45.3125 54.6875 
L 54.296875 54.6875 
L 54.296875 0 
L 45.3125 0 
L 45.3125 8.40625 
Q 42.046875 3.421875 37.71875 1 
Q 33.40625 -1.421875 27.6875 -1.421875 
Q 18.265625 -1.421875 13.375 4.4375 
Q 8.5 10.296875 8.5 21.578125 
z
M 31.109375 56 
z
" id="DejaVuSans-117"/>
      </defs>
      <g transform="translate(229.256018 282.93375)rotate(-90)scale(0.1 -0.1)">
       <use xlink:href="#DejaVuSans-67"/>
       <use x="69.824219" xlink:href="#DejaVuSans-97"/>
       <use x="131.103516" xlink:href="#DejaVuSans-108"/>
       <use x="158.886719" xlink:href="#DejaVuSans-99"/>
       <use x="213.867188" xlink:href="#DejaVuSans-105"/>
       <use x="241.650391" xlink:href="#DejaVuSans-117"/>
       <use x="305.029297" xlink:href="#DejaVuSans-109"/>
      </g>
     </g>
    </g>
    <g id="xtick_19">
     <g id="line2d_19">
      <g>
       <use style="stroke:#000000;stroke-width:0.8;" x="235.64777" xlink:href="#m136ecac68e" y="235.69"/>
      </g>
     </g>
     <g id="text_19">
      <!-- Chloride -->
      <defs>
       <path d="M 41.109375 46.296875 
Q 39.59375 47.171875 37.8125 47.578125 
Q 36.03125 48 33.890625 48 
Q 26.265625 48 22.1875 43.046875 
Q 18.109375 38.09375 18.109375 28.8125 
L 18.109375 0 
L 9.078125 0 
L 9.078125 54.6875 
L 18.109375 54.6875 
L 18.109375 46.1875 
Q 20.953125 51.171875 25.484375 53.578125 
Q 30.03125 56 36.53125 56 
Q 37.453125 56 38.578125 55.875 
Q 39.703125 55.765625 41.0625 55.515625 
z
" id="DejaVuSans-114"/>
       <path d="M 45.40625 46.390625 
L 45.40625 75.984375 
L 54.390625 75.984375 
L 54.390625 0 
L 45.40625 0 
L 45.40625 8.203125 
Q 42.578125 3.328125 38.25 0.953125 
Q 33.9375 -1.421875 27.875 -1.421875 
Q 17.96875 -1.421875 11.734375 6.484375 
Q 5.515625 14.40625 5.515625 27.296875 
Q 5.515625 40.1875 11.734375 48.09375 
Q 17.96875 56 27.875 56 
Q 33.9375 56 38.25 53.625 
Q 42.578125 51.265625 45.40625 46.390625 
z
M 14.796875 27.296875 
Q 14.796875 17.390625 18.875 11.75 
Q 22.953125 6.109375 30.078125 6.109375 
Q 37.203125 6.109375 41.296875 11.75 
Q 45.40625 17.390625 45.40625 27.296875 
Q 45.40625 37.203125 41.296875 42.84375 
Q 37.203125 48.484375 30.078125 48.484375 
Q 22.953125 48.484375 18.875 42.84375 
Q 14.796875 37.203125 14.796875 27.296875 
z
" id="DejaVuSans-100"/>
      </defs>
      <g transform="translate(238.407145 284.297812)rotate(-90)scale(0.1 -0.1)">
       <use xlink:href="#DejaVuSans-67"/>
       <use x="69.824219" xlink:href="#DejaVuSans-104"/>
       <use x="133.203125" xlink:href="#DejaVuSans-108"/>
       <use x="160.986328" xlink:href="#DejaVuSans-111"/>
       <use x="222.167969" xlink:href="#DejaVuSans-114"/>
       <use x="263.28125" xlink:href="#DejaVuSans-105"/>
       <use x="291.064453" xlink:href="#DejaVuSans-100"/>
       <use x="354.541016" xlink:href="#DejaVuSans-101"/>
      </g>
     </g>
    </g>
    <g id="xtick_20">
     <g id="line2d_20">
      <g>
       <use style="stroke:#000000;stroke-width:0.8;" x="244.798896" xlink:href="#m136ecac68e" y="235.69"/>
      </g>
     </g>
     <g id="text_20">
      <!-- Creatinine -->
      <g transform="translate(247.558271 294.366562)rotate(-90)scale(0.1 -0.1)">
       <use xlink:href="#DejaVuSans-67"/>
       <use x="69.824219" xlink:href="#DejaVuSans-114"/>
       <use x="110.90625" xlink:href="#DejaVuSans-101"/>
       <use x="172.429688" xlink:href="#DejaVuSans-97"/>
       <use x="233.708984" xlink:href="#DejaVuSans-116"/>
       <use x="272.917969" xlink:href="#DejaVuSans-105"/>
       <use x="300.701172" xlink:href="#DejaVuSans-110"/>
       <use x="364.080078" xlink:href="#DejaVuSans-105"/>
       <use x="391.863281" xlink:href="#DejaVuSans-110"/>
       <use x="455.242188" xlink:href="#DejaVuSans-101"/>
      </g>
     </g>
    </g>
    <g id="xtick_21">
     <g id="line2d_21">
      <g>
       <use style="stroke:#000000;stroke-width:0.8;" x="253.950022" xlink:href="#m136ecac68e" y="235.69"/>
      </g>
     </g>
     <g id="text_21">
      <!-- Bilirubin_direct -->
      <defs>
       <path d="M 48.6875 27.296875 
Q 48.6875 37.203125 44.609375 42.84375 
Q 40.53125 48.484375 33.40625 48.484375 
Q 26.265625 48.484375 22.1875 42.84375 
Q 18.109375 37.203125 18.109375 27.296875 
Q 18.109375 17.390625 22.1875 11.75 
Q 26.265625 6.109375 33.40625 6.109375 
Q 40.53125 6.109375 44.609375 11.75 
Q 48.6875 17.390625 48.6875 27.296875 
z
M 18.109375 46.390625 
Q 20.953125 51.265625 25.265625 53.625 
Q 29.59375 56 35.59375 56 
Q 45.5625 56 51.78125 48.09375 
Q 58.015625 40.1875 58.015625 27.296875 
Q 58.015625 14.40625 51.78125 6.484375 
Q 45.5625 -1.421875 35.59375 -1.421875 
Q 29.59375 -1.421875 25.265625 0.953125 
Q 20.953125 3.328125 18.109375 8.203125 
L 18.109375 0 
L 9.078125 0 
L 9.078125 75.984375 
L 18.109375 75.984375 
z
" id="DejaVuSans-98"/>
       <path d="M 50.984375 -16.609375 
L 50.984375 -23.578125 
L -0.984375 -23.578125 
L -0.984375 -16.609375 
z
" id="DejaVuSans-95"/>
      </defs>
      <g transform="translate(256.570335 317.604062)rotate(-90)scale(0.1 -0.1)">
       <use xlink:href="#DejaVuSans-66"/>
       <use x="68.603516" xlink:href="#DejaVuSans-105"/>
       <use x="96.386719" xlink:href="#DejaVuSans-108"/>
       <use x="124.169922" xlink:href="#DejaVuSans-105"/>
       <use x="151.953125" xlink:href="#DejaVuSans-114"/>
       <use x="193.066406" xlink:href="#DejaVuSans-117"/>
       <use x="256.445312" xlink:href="#DejaVuSans-98"/>
       <use x="319.921875" xlink:href="#DejaVuSans-105"/>
       <use x="347.705078" xlink:href="#DejaVuSans-110"/>
       <use x="411.083984" xlink:href="#DejaVuSans-95"/>
       <use x="461.083984" xlink:href="#DejaVuSans-100"/>
       <use x="524.560547" xlink:href="#DejaVuSans-105"/>
       <use x="552.34375" xlink:href="#DejaVuSans-114"/>
       <use x="593.425781" xlink:href="#DejaVuSans-101"/>
       <use x="654.949219" xlink:href="#DejaVuSans-99"/>
       <use x="709.929688" xlink:href="#DejaVuSans-116"/>
      </g>
     </g>
    </g>
    <g id="xtick_22">
     <g id="line2d_22">
      <g>
       <use style="stroke:#000000;stroke-width:0.8;" x="263.101149" xlink:href="#m136ecac68e" y="235.69"/>
      </g>
     </g>
     <g id="text_22">
      <!-- Glucose -->
      <defs>
       <path d="M 59.515625 10.40625 
L 59.515625 29.984375 
L 43.40625 29.984375 
L 43.40625 38.09375 
L 69.28125 38.09375 
L 69.28125 6.78125 
Q 63.578125 2.734375 56.6875 0.65625 
Q 49.8125 -1.421875 42 -1.421875 
Q 24.90625 -1.421875 15.25 8.5625 
Q 5.609375 18.5625 5.609375 36.375 
Q 5.609375 54.25 15.25 64.234375 
Q 24.90625 74.21875 42 74.21875 
Q 49.125 74.21875 55.546875 72.453125 
Q 61.96875 70.703125 67.390625 67.28125 
L 67.390625 56.78125 
Q 61.921875 61.421875 55.765625 63.765625 
Q 49.609375 66.109375 42.828125 66.109375 
Q 29.4375 66.109375 22.71875 58.640625 
Q 16.015625 51.171875 16.015625 36.375 
Q 16.015625 21.625 22.71875 14.15625 
Q 29.4375 6.6875 42.828125 6.6875 
Q 48.046875 6.6875 52.140625 7.59375 
Q 56.25 8.5 59.515625 10.40625 
z
" id="DejaVuSans-71"/>
      </defs>
      <g transform="translate(265.860524 282.53375)rotate(-90)scale(0.1 -0.1)">
       <use xlink:href="#DejaVuSans-71"/>
       <use x="77.490234" xlink:href="#DejaVuSans-108"/>
       <use x="105.273438" xlink:href="#DejaVuSans-117"/>
       <use x="168.652344" xlink:href="#DejaVuSans-99"/>
       <use x="223.632812" xlink:href="#DejaVuSans-111"/>
       <use x="284.814453" xlink:href="#DejaVuSans-115"/>
       <use x="336.914062" xlink:href="#DejaVuSans-101"/>
      </g>
     </g>
    </g>
    <g id="xtick_23">
     <g id="line2d_23">
      <g>
       <use style="stroke:#000000;stroke-width:0.8;" x="272.252275" xlink:href="#m136ecac68e" y="235.69"/>
      </g>
     </g>
     <g id="text_23">
      <!-- Lactate -->
      <defs>
       <path d="M 9.8125 72.90625 
L 19.671875 72.90625 
L 19.671875 8.296875 
L 55.171875 8.296875 
L 55.171875 0 
L 9.8125 0 
z
" id="DejaVuSans-76"/>
      </defs>
      <g transform="translate(275.01165 280.010312)rotate(-90)scale(0.1 -0.1)">
       <use xlink:href="#DejaVuSans-76"/>
       <use x="55.712891" xlink:href="#DejaVuSans-97"/>
       <use x="116.992188" xlink:href="#DejaVuSans-99"/>
       <use x="171.972656" xlink:href="#DejaVuSans-116"/>
       <use x="211.181641" xlink:href="#DejaVuSans-97"/>
       <use x="272.460938" xlink:href="#DejaVuSans-116"/>
       <use x="311.669922" xlink:href="#DejaVuSans-101"/>
      </g>
     </g>
    </g>
    <g id="xtick_24">
     <g id="line2d_24">
      <g>
       <use style="stroke:#000000;stroke-width:0.8;" x="281.403402" xlink:href="#m136ecac68e" y="235.69"/>
      </g>
     </g>
     <g id="text_24">
      <!-- Magnesium -->
      <defs>
       <path d="M 45.40625 27.984375 
Q 45.40625 37.75 41.375 43.109375 
Q 37.359375 48.484375 30.078125 48.484375 
Q 22.859375 48.484375 18.828125 43.109375 
Q 14.796875 37.75 14.796875 27.984375 
Q 14.796875 18.265625 18.828125 12.890625 
Q 22.859375 7.515625 30.078125 7.515625 
Q 37.359375 7.515625 41.375 12.890625 
Q 45.40625 18.265625 45.40625 27.984375 
z
M 54.390625 6.78125 
Q 54.390625 -7.171875 48.1875 -13.984375 
Q 42 -20.796875 29.203125 -20.796875 
Q 24.46875 -20.796875 20.265625 -20.09375 
Q 16.0625 -19.390625 12.109375 -17.921875 
L 12.109375 -9.1875 
Q 16.0625 -11.328125 19.921875 -12.34375 
Q 23.78125 -13.375 27.78125 -13.375 
Q 36.625 -13.375 41.015625 -8.765625 
Q 45.40625 -4.15625 45.40625 5.171875 
L 45.40625 9.625 
Q 42.625 4.78125 38.28125 2.390625 
Q 33.9375 0 27.875 0 
Q 17.828125 0 11.671875 7.65625 
Q 5.515625 15.328125 5.515625 27.984375 
Q 5.515625 40.671875 11.671875 48.328125 
Q 17.828125 56 27.875 56 
Q 33.9375 56 38.28125 53.609375 
Q 42.625 51.21875 45.40625 46.390625 
L 45.40625 54.6875 
L 54.390625 54.6875 
z
" id="DejaVuSans-103"/>
      </defs>
      <g transform="translate(284.162777 300.350937)rotate(-90)scale(0.1 -0.1)">
       <use xlink:href="#DejaVuSans-77"/>
       <use x="86.279297" xlink:href="#DejaVuSans-97"/>
       <use x="147.558594" xlink:href="#DejaVuSans-103"/>
       <use x="211.035156" xlink:href="#DejaVuSans-110"/>
       <use x="274.414062" xlink:href="#DejaVuSans-101"/>
       <use x="335.9375" xlink:href="#DejaVuSans-115"/>
       <use x="388.037109" xlink:href="#DejaVuSans-105"/>
       <use x="415.820312" xlink:href="#DejaVuSans-117"/>
       <use x="479.199219" xlink:href="#DejaVuSans-109"/>
      </g>
     </g>
    </g>
    <g id="xtick_25">
     <g id="line2d_25">
      <g>
       <use style="stroke:#000000;stroke-width:0.8;" x="290.554528" xlink:href="#m136ecac68e" y="235.69"/>
      </g>
     </g>
     <g id="text_25">
      <!-- Phosphate -->
      <g transform="translate(293.313903 295.272812)rotate(-90)scale(0.1 -0.1)">
       <use xlink:href="#DejaVuSans-80"/>
       <use x="60.302734" xlink:href="#DejaVuSans-104"/>
       <use x="123.681641" xlink:href="#DejaVuSans-111"/>
       <use x="184.863281" xlink:href="#DejaVuSans-115"/>
       <use x="236.962891" xlink:href="#DejaVuSans-112"/>
       <use x="300.439453" xlink:href="#DejaVuSans-104"/>
       <use x="363.818359" xlink:href="#DejaVuSans-97"/>
       <use x="425.097656" xlink:href="#DejaVuSans-116"/>
       <use x="464.306641" xlink:href="#DejaVuSans-101"/>
      </g>
     </g>
    </g>
    <g id="xtick_26">
     <g id="line2d_26">
      <g>
       <use style="stroke:#000000;stroke-width:0.8;" x="299.705655" xlink:href="#m136ecac68e" y="235.69"/>
      </g>
     </g>
     <g id="text_26">
      <!-- Potassium -->
      <g transform="translate(302.46503 294.157187)rotate(-90)scale(0.1 -0.1)">
       <use xlink:href="#DejaVuSans-80"/>
       <use x="60.255859" xlink:href="#DejaVuSans-111"/>
       <use x="121.4375" xlink:href="#DejaVuSans-116"/>
       <use x="160.646484" xlink:href="#DejaVuSans-97"/>
       <use x="221.925781" xlink:href="#DejaVuSans-115"/>
       <use x="274.025391" xlink:href="#DejaVuSans-115"/>
       <use x="326.125" xlink:href="#DejaVuSans-105"/>
       <use x="353.908203" xlink:href="#DejaVuSans-117"/>
       <use x="417.287109" xlink:href="#DejaVuSans-109"/>
      </g>
     </g>
    </g>
    <g id="xtick_27">
     <g id="line2d_27">
      <g>
       <use style="stroke:#000000;stroke-width:0.8;" x="308.856781" xlink:href="#m136ecac68e" y="235.69"/>
      </g>
     </g>
     <g id="text_27">
      <!-- Bilirubin_total -->
      <g transform="translate(311.477094 311.663437)rotate(-90)scale(0.1 -0.1)">
       <use xlink:href="#DejaVuSans-66"/>
       <use x="68.603516" xlink:href="#DejaVuSans-105"/>
       <use x="96.386719" xlink:href="#DejaVuSans-108"/>
       <use x="124.169922" xlink:href="#DejaVuSans-105"/>
       <use x="151.953125" xlink:href="#DejaVuSans-114"/>
       <use x="193.066406" xlink:href="#DejaVuSans-117"/>
       <use x="256.445312" xlink:href="#DejaVuSans-98"/>
       <use x="319.921875" xlink:href="#DejaVuSans-105"/>
       <use x="347.705078" xlink:href="#DejaVuSans-110"/>
       <use x="411.083984" xlink:href="#DejaVuSans-95"/>
       <use x="461.083984" xlink:href="#DejaVuSans-116"/>
       <use x="500.292969" xlink:href="#DejaVuSans-111"/>
       <use x="561.474609" xlink:href="#DejaVuSans-116"/>
       <use x="600.683594" xlink:href="#DejaVuSans-97"/>
       <use x="661.962891" xlink:href="#DejaVuSans-108"/>
      </g>
     </g>
    </g>
    <g id="xtick_28">
     <g id="line2d_28">
      <g>
       <use style="stroke:#000000;stroke-width:0.8;" x="318.007908" xlink:href="#m136ecac68e" y="235.69"/>
      </g>
     </g>
     <g id="text_28">
      <!-- TroponinI -->
      <defs>
       <path d="M 9.8125 72.90625 
L 19.671875 72.90625 
L 19.671875 0 
L 9.8125 0 
z
" id="DejaVuSans-73"/>
      </defs>
      <g transform="translate(320.767283 289.872813)rotate(-90)scale(0.1 -0.1)">
       <use xlink:href="#DejaVuSans-84"/>
       <use x="60.865234" xlink:href="#DejaVuSans-114"/>
       <use x="101.947266" xlink:href="#DejaVuSans-111"/>
       <use x="163.128906" xlink:href="#DejaVuSans-112"/>
       <use x="226.605469" xlink:href="#DejaVuSans-111"/>
       <use x="287.787109" xlink:href="#DejaVuSans-110"/>
       <use x="351.166016" xlink:href="#DejaVuSans-105"/>
       <use x="378.949219" xlink:href="#DejaVuSans-110"/>
       <use x="442.328125" xlink:href="#DejaVuSans-73"/>
      </g>
     </g>
    </g>
    <g id="xtick_29">
     <g id="line2d_29">
      <g>
       <use style="stroke:#000000;stroke-width:0.8;" x="327.159034" xlink:href="#m136ecac68e" y="235.69"/>
      </g>
     </g>
     <g id="text_29">
      <!-- Hct -->
      <g transform="translate(329.918409 259.629062)rotate(-90)scale(0.1 -0.1)">
       <use xlink:href="#DejaVuSans-72"/>
       <use x="75.195312" xlink:href="#DejaVuSans-99"/>
       <use x="130.175781" xlink:href="#DejaVuSans-116"/>
      </g>
     </g>
    </g>
    <g id="xtick_30">
     <g id="line2d_30">
      <g>
       <use style="stroke:#000000;stroke-width:0.8;" x="336.310161" xlink:href="#m136ecac68e" y="235.69"/>
      </g>
     </g>
     <g id="text_30">
      <!-- Hgb -->
      <g transform="translate(339.069536 262.907187)rotate(-90)scale(0.1 -0.1)">
       <use xlink:href="#DejaVuSans-72"/>
       <use x="75.195312" xlink:href="#DejaVuSans-103"/>
       <use x="138.671875" xlink:href="#DejaVuSans-98"/>
      </g>
     </g>
    </g>
    <g id="xtick_31">
     <g id="line2d_31">
      <g>
       <use style="stroke:#000000;stroke-width:0.8;" x="345.461287" xlink:href="#m136ecac68e" y="235.69"/>
      </g>
     </g>
     <g id="text_31">
      <!-- PTT -->
      <g transform="translate(348.220662 260.93375)rotate(-90)scale(0.1 -0.1)">
       <use xlink:href="#DejaVuSans-80"/>
       <use x="60.302734" xlink:href="#DejaVuSans-84"/>
       <use x="121.371094" xlink:href="#DejaVuSans-84"/>
      </g>
     </g>
    </g>
    <g id="xtick_32">
     <g id="line2d_32">
      <g>
       <use style="stroke:#000000;stroke-width:0.8;" x="354.612413" xlink:href="#m136ecac68e" y="235.69"/>
      </g>
     </g>
     <g id="text_32">
      <!-- WBC -->
      <defs>
       <path d="M 3.328125 72.90625 
L 13.28125 72.90625 
L 28.609375 11.28125 
L 43.890625 72.90625 
L 54.984375 72.90625 
L 70.3125 11.28125 
L 85.59375 72.90625 
L 95.609375 72.90625 
L 77.296875 0 
L 64.890625 0 
L 49.515625 63.28125 
L 33.984375 0 
L 21.578125 0 
z
" id="DejaVuSans-87"/>
      </defs>
      <g transform="translate(357.371788 266.419688)rotate(-90)scale(0.1 -0.1)">
       <use xlink:href="#DejaVuSans-87"/>
       <use x="98.876953" xlink:href="#DejaVuSans-66"/>
       <use x="167.464844" xlink:href="#DejaVuSans-67"/>
      </g>
     </g>
    </g>
    <g id="xtick_33">
     <g id="line2d_33">
      <g>
       <use style="stroke:#000000;stroke-width:0.8;" x="363.76354" xlink:href="#m136ecac68e" y="235.69"/>
      </g>
     </g>
     <g id="text_33">
      <!-- Fibrinogen -->
      <g transform="translate(366.522915 295.741562)rotate(-90)scale(0.1 -0.1)">
       <use xlink:href="#DejaVuSans-70"/>
       <use x="57.410156" xlink:href="#DejaVuSans-105"/>
       <use x="85.193359" xlink:href="#DejaVuSans-98"/>
       <use x="148.669922" xlink:href="#DejaVuSans-114"/>
       <use x="189.783203" xlink:href="#DejaVuSans-105"/>
       <use x="217.566406" xlink:href="#DejaVuSans-110"/>
       <use x="280.945312" xlink:href="#DejaVuSans-111"/>
       <use x="342.126953" xlink:href="#DejaVuSans-103"/>
       <use x="405.603516" xlink:href="#DejaVuSans-101"/>
       <use x="467.126953" xlink:href="#DejaVuSans-110"/>
      </g>
     </g>
    </g>
    <g id="xtick_34">
     <g id="line2d_34">
      <g>
       <use style="stroke:#000000;stroke-width:0.8;" x="372.914666" xlink:href="#m136ecac68e" y="235.69"/>
      </g>
     </g>
     <g id="text_34">
      <!-- Platelets -->
      <g transform="translate(375.674041 285.760312)rotate(-90)scale(0.1 -0.1)">
       <use xlink:href="#DejaVuSans-80"/>
       <use x="60.302734" xlink:href="#DejaVuSans-108"/>
       <use x="88.085938" xlink:href="#DejaVuSans-97"/>
       <use x="149.365234" xlink:href="#DejaVuSans-116"/>
       <use x="188.574219" xlink:href="#DejaVuSans-101"/>
       <use x="250.097656" xlink:href="#DejaVuSans-108"/>
       <use x="277.880859" xlink:href="#DejaVuSans-101"/>
       <use x="339.404297" xlink:href="#DejaVuSans-116"/>
       <use x="378.613281" xlink:href="#DejaVuSans-115"/>
      </g>
     </g>
    </g>
    <g id="xtick_35">
     <g id="line2d_35">
      <g>
       <use style="stroke:#000000;stroke-width:0.8;" x="382.065793" xlink:href="#m136ecac68e" y="235.69"/>
      </g>
     </g>
     <g id="text_35">
      <!-- Age -->
      <g transform="translate(384.825168 262.032187)rotate(-90)scale(0.1 -0.1)">
       <use xlink:href="#DejaVuSans-65"/>
       <use x="68.408203" xlink:href="#DejaVuSans-103"/>
       <use x="131.884766" xlink:href="#DejaVuSans-101"/>
      </g>
     </g>
    </g>
    <g id="xtick_36">
     <g id="line2d_36">
      <g>
       <use style="stroke:#000000;stroke-width:0.8;" x="391.216919" xlink:href="#m136ecac68e" y="235.69"/>
      </g>
     </g>
     <g id="text_36">
      <!-- Gender -->
      <g transform="translate(393.976294 279.541562)rotate(-90)scale(0.1 -0.1)">
       <use xlink:href="#DejaVuSans-71"/>
       <use x="77.490234" xlink:href="#DejaVuSans-101"/>
       <use x="139.013672" xlink:href="#DejaVuSans-110"/>
       <use x="202.392578" xlink:href="#DejaVuSans-100"/>
       <use x="265.869141" xlink:href="#DejaVuSans-101"/>
       <use x="327.392578" xlink:href="#DejaVuSans-114"/>
      </g>
     </g>
    </g>
    <g id="xtick_37">
     <g id="line2d_37">
      <g>
       <use style="stroke:#000000;stroke-width:0.8;" x="400.368046" xlink:href="#m136ecac68e" y="235.69"/>
      </g>
     </g>
     <g id="text_37">
      <!-- Unit1 -->
      <defs>
       <path d="M 12.40625 8.296875 
L 28.515625 8.296875 
L 28.515625 63.921875 
L 10.984375 60.40625 
L 10.984375 69.390625 
L 28.421875 72.90625 
L 38.28125 72.90625 
L 38.28125 8.296875 
L 54.390625 8.296875 
L 54.390625 0 
L 12.40625 0 
z
" id="DejaVuSans-49"/>
      </defs>
      <g transform="translate(403.127421 269.407187)rotate(-90)scale(0.1 -0.1)">
       <use xlink:href="#DejaVuSans-85"/>
       <use x="73.193359" xlink:href="#DejaVuSans-110"/>
       <use x="136.572266" xlink:href="#DejaVuSans-105"/>
       <use x="164.355469" xlink:href="#DejaVuSans-116"/>
       <use x="203.564453" xlink:href="#DejaVuSans-49"/>
      </g>
     </g>
    </g>
    <g id="xtick_38">
     <g id="line2d_38">
      <g>
       <use style="stroke:#000000;stroke-width:0.8;" x="409.519172" xlink:href="#m136ecac68e" y="235.69"/>
      </g>
     </g>
     <g id="text_38">
      <!-- Unit2 -->
      <g transform="translate(412.278547 269.407187)rotate(-90)scale(0.1 -0.1)">
       <use xlink:href="#DejaVuSans-85"/>
       <use x="73.193359" xlink:href="#DejaVuSans-110"/>
       <use x="136.572266" xlink:href="#DejaVuSans-105"/>
       <use x="164.355469" xlink:href="#DejaVuSans-116"/>
       <use x="203.564453" xlink:href="#DejaVuSans-50"/>
      </g>
     </g>
    </g>
    <g id="xtick_39">
     <g id="line2d_39">
      <g>
       <use style="stroke:#000000;stroke-width:0.8;" x="418.670299" xlink:href="#m136ecac68e" y="235.69"/>
      </g>
     </g>
     <g id="text_39">
      <!-- HospAdmTime -->
      <g transform="translate(421.429674 315.59)rotate(-90)scale(0.1 -0.1)">
       <use xlink:href="#DejaVuSans-72"/>
       <use x="75.195312" xlink:href="#DejaVuSans-111"/>
       <use x="136.376953" xlink:href="#DejaVuSans-115"/>
       <use x="188.476562" xlink:href="#DejaVuSans-112"/>
       <use x="251.953125" xlink:href="#DejaVuSans-65"/>
       <use x="320.345703" xlink:href="#DejaVuSans-100"/>
       <use x="383.822266" xlink:href="#DejaVuSans-109"/>
       <use x="481.234375" xlink:href="#DejaVuSans-84"/>
       <use x="542.271484" xlink:href="#DejaVuSans-105"/>
       <use x="570.054688" xlink:href="#DejaVuSans-109"/>
       <use x="667.466797" xlink:href="#DejaVuSans-101"/>
      </g>
     </g>
    </g>
    <g id="xtick_40">
     <g id="line2d_40">
      <g>
       <use style="stroke:#000000;stroke-width:0.8;" x="427.821425" xlink:href="#m136ecac68e" y="235.69"/>
      </g>
     </g>
     <g id="text_40">
      <!-- ICULOS -->
      <g transform="translate(430.5808 279.729062)rotate(-90)scale(0.1 -0.1)">
       <use xlink:href="#DejaVuSans-73"/>
       <use x="29.492188" xlink:href="#DejaVuSans-67"/>
       <use x="99.316406" xlink:href="#DejaVuSans-85"/>
       <use x="172.509766" xlink:href="#DejaVuSans-76"/>
       <use x="228.175781" xlink:href="#DejaVuSans-79"/>
       <use x="306.886719" xlink:href="#DejaVuSans-83"/>
      </g>
     </g>
    </g>
    <g id="text_41">
     <!-- Feature -->
     <g transform="translate(231.163125 329.2025)scale(0.1 -0.1)">
      <use xlink:href="#DejaVuSans-70"/>
      <use x="57.441406" xlink:href="#DejaVuSans-101"/>
      <use x="118.964844" xlink:href="#DejaVuSans-97"/>
      <use x="180.244141" xlink:href="#DejaVuSans-116"/>
      <use x="219.453125" xlink:href="#DejaVuSans-117"/>
      <use x="282.832031" xlink:href="#DejaVuSans-114"/>
      <use x="323.914062" xlink:href="#DejaVuSans-101"/>
     </g>
    </g>
   </g>
   <g id="matplotlib.axis_2">
    <g id="ytick_1">
     <g id="line2d_41">
      <defs>
       <path d="M 0 0 
L -3.5 0 
" id="maa3b12b083" style="stroke:#000000;stroke-width:0.8;"/>
      </defs>
      <g>
       <use style="stroke:#000000;stroke-width:0.8;" x="50.87" xlink:href="#maa3b12b083" y="235.312092"/>
      </g>
     </g>
     <g id="text_42">
      <!-- 0 -->
      <defs>
       <path d="M 31.78125 66.40625 
Q 24.171875 66.40625 20.328125 58.90625 
Q 16.5 51.421875 16.5 36.375 
Q 16.5 21.390625 20.328125 13.890625 
Q 24.171875 6.390625 31.78125 6.390625 
Q 39.453125 6.390625 43.28125 13.890625 
Q 47.125 21.390625 47.125 36.375 
Q 47.125 51.421875 43.28125 58.90625 
Q 39.453125 66.40625 31.78125 66.40625 
z
M 31.78125 74.21875 
Q 44.046875 74.21875 50.515625 64.515625 
Q 56.984375 54.828125 56.984375 36.375 
Q 56.984375 17.96875 50.515625 8.265625 
Q 44.046875 -1.421875 31.78125 -1.421875 
Q 19.53125 -1.421875 13.0625 8.265625 
Q 6.59375 17.96875 6.59375 36.375 
Q 6.59375 54.828125 13.0625 64.515625 
Q 19.53125 74.21875 31.78125 74.21875 
z
" id="DejaVuSans-48"/>
      </defs>
      <g transform="translate(37.5075 239.11131)scale(0.1 -0.1)">
       <use xlink:href="#DejaVuSans-48"/>
      </g>
     </g>
    </g>
    <g id="ytick_2">
     <g id="line2d_42">
      <g>
       <use style="stroke:#000000;stroke-width:0.8;" x="50.87" xlink:href="#maa3b12b083" y="194.920292"/>
      </g>
     </g>
     <g id="text_43">
      <!-- 20 -->
      <g transform="translate(31.145 198.71951)scale(0.1 -0.1)">
       <use xlink:href="#DejaVuSans-50"/>
       <use x="63.623047" xlink:href="#DejaVuSans-48"/>
      </g>
     </g>
    </g>
    <g id="ytick_3">
     <g id="line2d_43">
      <g>
       <use style="stroke:#000000;stroke-width:0.8;" x="50.87" xlink:href="#maa3b12b083" y="154.528492"/>
      </g>
     </g>
     <g id="text_44">
      <!-- 40 -->
      <defs>
       <path d="M 37.796875 64.3125 
L 12.890625 25.390625 
L 37.796875 25.390625 
z
M 35.203125 72.90625 
L 47.609375 72.90625 
L 47.609375 25.390625 
L 58.015625 25.390625 
L 58.015625 17.1875 
L 47.609375 17.1875 
L 47.609375 0 
L 37.796875 0 
L 37.796875 17.1875 
L 4.890625 17.1875 
L 4.890625 26.703125 
z
" id="DejaVuSans-52"/>
      </defs>
      <g transform="translate(31.145 158.32771)scale(0.1 -0.1)">
       <use xlink:href="#DejaVuSans-52"/>
       <use x="63.623047" xlink:href="#DejaVuSans-48"/>
      </g>
     </g>
    </g>
    <g id="ytick_4">
     <g id="line2d_44">
      <g>
       <use style="stroke:#000000;stroke-width:0.8;" x="50.87" xlink:href="#maa3b12b083" y="114.136691"/>
      </g>
     </g>
     <g id="text_45">
      <!-- 60 -->
      <defs>
       <path d="M 33.015625 40.375 
Q 26.375 40.375 22.484375 35.828125 
Q 18.609375 31.296875 18.609375 23.390625 
Q 18.609375 15.53125 22.484375 10.953125 
Q 26.375 6.390625 33.015625 6.390625 
Q 39.65625 6.390625 43.53125 10.953125 
Q 47.40625 15.53125 47.40625 23.390625 
Q 47.40625 31.296875 43.53125 35.828125 
Q 39.65625 40.375 33.015625 40.375 
z
M 52.59375 71.296875 
L 52.59375 62.3125 
Q 48.875 64.0625 45.09375 64.984375 
Q 41.3125 65.921875 37.59375 65.921875 
Q 27.828125 65.921875 22.671875 59.328125 
Q 17.53125 52.734375 16.796875 39.40625 
Q 19.671875 43.65625 24.015625 45.921875 
Q 28.375 48.1875 33.59375 48.1875 
Q 44.578125 48.1875 50.953125 41.515625 
Q 57.328125 34.859375 57.328125 23.390625 
Q 57.328125 12.15625 50.6875 5.359375 
Q 44.046875 -1.421875 33.015625 -1.421875 
Q 20.359375 -1.421875 13.671875 8.265625 
Q 6.984375 17.96875 6.984375 36.375 
Q 6.984375 53.65625 15.1875 63.9375 
Q 23.390625 74.21875 37.203125 74.21875 
Q 40.921875 74.21875 44.703125 73.484375 
Q 48.484375 72.75 52.59375 71.296875 
z
" id="DejaVuSans-54"/>
      </defs>
      <g transform="translate(31.145 117.93591)scale(0.1 -0.1)">
       <use xlink:href="#DejaVuSans-54"/>
       <use x="63.623047" xlink:href="#DejaVuSans-48"/>
      </g>
     </g>
    </g>
    <g id="ytick_5">
     <g id="line2d_45">
      <g>
       <use style="stroke:#000000;stroke-width:0.8;" x="50.87" xlink:href="#maa3b12b083" y="73.744891"/>
      </g>
     </g>
     <g id="text_46">
      <!-- 80 -->
      <defs>
       <path d="M 31.78125 34.625 
Q 24.75 34.625 20.71875 30.859375 
Q 16.703125 27.09375 16.703125 20.515625 
Q 16.703125 13.921875 20.71875 10.15625 
Q 24.75 6.390625 31.78125 6.390625 
Q 38.8125 6.390625 42.859375 10.171875 
Q 46.921875 13.96875 46.921875 20.515625 
Q 46.921875 27.09375 42.890625 30.859375 
Q 38.875 34.625 31.78125 34.625 
z
M 21.921875 38.8125 
Q 15.578125 40.375 12.03125 44.71875 
Q 8.5 49.078125 8.5 55.328125 
Q 8.5 64.0625 14.71875 69.140625 
Q 20.953125 74.21875 31.78125 74.21875 
Q 42.671875 74.21875 48.875 69.140625 
Q 55.078125 64.0625 55.078125 55.328125 
Q 55.078125 49.078125 51.53125 44.71875 
Q 48 40.375 41.703125 38.8125 
Q 48.828125 37.15625 52.796875 32.3125 
Q 56.78125 27.484375 56.78125 20.515625 
Q 56.78125 9.90625 50.3125 4.234375 
Q 43.84375 -1.421875 31.78125 -1.421875 
Q 19.734375 -1.421875 13.25 4.234375 
Q 6.78125 9.90625 6.78125 20.515625 
Q 6.78125 27.484375 10.78125 32.3125 
Q 14.796875 37.15625 21.921875 38.8125 
z
M 18.3125 54.390625 
Q 18.3125 48.734375 21.84375 45.5625 
Q 25.390625 42.390625 31.78125 42.390625 
Q 38.140625 42.390625 41.71875 45.5625 
Q 45.3125 48.734375 45.3125 54.390625 
Q 45.3125 60.0625 41.71875 63.234375 
Q 38.140625 66.40625 31.78125 66.40625 
Q 25.390625 66.40625 21.84375 63.234375 
Q 18.3125 60.0625 18.3125 54.390625 
z
" id="DejaVuSans-56"/>
      </defs>
      <g transform="translate(31.145 77.54411)scale(0.1 -0.1)">
       <use xlink:href="#DejaVuSans-56"/>
       <use x="63.623047" xlink:href="#DejaVuSans-48"/>
      </g>
     </g>
    </g>
    <g id="ytick_6">
     <g id="line2d_46">
      <g>
       <use style="stroke:#000000;stroke-width:0.8;" x="50.87" xlink:href="#maa3b12b083" y="33.353091"/>
      </g>
     </g>
     <g id="text_47">
      <!-- 100 -->
      <g transform="translate(24.7825 37.15231)scale(0.1 -0.1)">
       <use xlink:href="#DejaVuSans-49"/>
       <use x="63.623047" xlink:href="#DejaVuSans-48"/>
       <use x="127.246094" xlink:href="#DejaVuSans-48"/>
      </g>
     </g>
    </g>
    <g id="text_48">
     <!-- Percentage (%) -->
     <defs>
      <path id="DejaVuSans-32"/>
      <path d="M 31 75.875 
Q 24.46875 64.65625 21.28125 53.65625 
Q 18.109375 42.671875 18.109375 31.390625 
Q 18.109375 20.125 21.3125 9.0625 
Q 24.515625 -2 31 -13.1875 
L 23.1875 -13.1875 
Q 15.875 -1.703125 12.234375 9.375 
Q 8.59375 20.453125 8.59375 31.390625 
Q 8.59375 42.28125 12.203125 53.3125 
Q 15.828125 64.359375 23.1875 75.875 
z
" id="DejaVuSans-40"/>
      <path d="M 72.703125 32.078125 
Q 68.453125 32.078125 66.03125 28.46875 
Q 63.625 24.859375 63.625 18.40625 
Q 63.625 12.0625 66.03125 8.421875 
Q 68.453125 4.78125 72.703125 4.78125 
Q 76.859375 4.78125 79.265625 8.421875 
Q 81.6875 12.0625 81.6875 18.40625 
Q 81.6875 24.8125 79.265625 28.4375 
Q 76.859375 32.078125 72.703125 32.078125 
z
M 72.703125 38.28125 
Q 80.421875 38.28125 84.953125 32.90625 
Q 89.5 27.546875 89.5 18.40625 
Q 89.5 9.28125 84.9375 3.921875 
Q 80.375 -1.421875 72.703125 -1.421875 
Q 64.890625 -1.421875 60.34375 3.921875 
Q 55.8125 9.28125 55.8125 18.40625 
Q 55.8125 27.59375 60.375 32.9375 
Q 64.9375 38.28125 72.703125 38.28125 
z
M 22.3125 68.015625 
Q 18.109375 68.015625 15.6875 64.375 
Q 13.28125 60.75 13.28125 54.390625 
Q 13.28125 47.953125 15.671875 44.328125 
Q 18.0625 40.71875 22.3125 40.71875 
Q 26.5625 40.71875 28.96875 44.328125 
Q 31.390625 47.953125 31.390625 54.390625 
Q 31.390625 60.6875 28.953125 64.34375 
Q 26.515625 68.015625 22.3125 68.015625 
z
M 66.40625 74.21875 
L 74.21875 74.21875 
L 28.609375 -1.421875 
L 20.796875 -1.421875 
z
M 22.3125 74.21875 
Q 30.03125 74.21875 34.609375 68.875 
Q 39.203125 63.53125 39.203125 54.390625 
Q 39.203125 45.171875 34.640625 39.84375 
Q 30.078125 34.515625 22.3125 34.515625 
Q 14.546875 34.515625 10.03125 39.859375 
Q 5.515625 45.21875 5.515625 54.390625 
Q 5.515625 63.484375 10.046875 68.84375 
Q 14.59375 74.21875 22.3125 74.21875 
z
" id="DejaVuSans-37"/>
      <path d="M 8.015625 75.875 
L 15.828125 75.875 
Q 23.140625 64.359375 26.78125 53.3125 
Q 30.421875 42.28125 30.421875 31.390625 
Q 30.421875 20.453125 26.78125 9.375 
Q 23.140625 -1.703125 15.828125 -13.1875 
L 8.015625 -13.1875 
Q 14.5 -2 17.703125 9.0625 
Q 20.90625 20.125 20.90625 31.390625 
Q 20.90625 42.671875 17.703125 53.65625 
Q 14.5 64.65625 8.015625 75.875 
z
" id="DejaVuSans-41"/>
     </defs>
     <g transform="translate(18.702813 169.218906)rotate(-90)scale(0.1 -0.1)">
      <use xlink:href="#DejaVuSans-80"/>
      <use x="60.255859" xlink:href="#DejaVuSans-101"/>
      <use x="121.779297" xlink:href="#DejaVuSans-114"/>
      <use x="162.861328" xlink:href="#DejaVuSans-99"/>
      <use x="217.841797" xlink:href="#DejaVuSans-101"/>
      <use x="279.365234" xlink:href="#DejaVuSans-110"/>
      <use x="342.744141" xlink:href="#DejaVuSans-116"/>
      <use x="381.953125" xlink:href="#DejaVuSans-97"/>
      <use x="443.232422" xlink:href="#DejaVuSans-103"/>
      <use x="506.708984" xlink:href="#DejaVuSans-101"/>
      <use x="568.232422" xlink:href="#DejaVuSans-32"/>
      <use x="600.019531" xlink:href="#DejaVuSans-40"/>
      <use x="639.033203" xlink:href="#DejaVuSans-37"/>
      <use x="734.052734" xlink:href="#DejaVuSans-41"/>
     </g>
    </g>
   </g>
   <g id="patch_83">
    <path d="M 50.87 235.69 
L 50.87 25.44 
" style="fill:none;stroke:#000000;stroke-linecap:square;stroke-linejoin:miter;stroke-width:0.8;"/>
   </g>
   <g id="patch_84">
    <path d="M 450 235.69 
L 450 25.44 
" style="fill:none;stroke:#000000;stroke-linecap:square;stroke-linejoin:miter;stroke-width:0.8;"/>
   </g>
   <g id="patch_85">
    <path d="M 50.87 235.69 
L 450 235.69 
" style="fill:none;stroke:#000000;stroke-linecap:square;stroke-linejoin:miter;stroke-width:0.8;"/>
   </g>
   <g id="patch_86">
    <path d="M 50.87 25.44 
L 450 25.44 
" style="fill:none;stroke:#000000;stroke-linecap:square;stroke-linejoin:miter;stroke-width:0.8;"/>
   </g>
   <g id="text_49">
    <!-- Number of NaN vs. Number of Values -->
    <defs>
     <path d="M 37.109375 75.984375 
L 37.109375 68.5 
L 28.515625 68.5 
Q 23.6875 68.5 21.796875 66.546875 
Q 19.921875 64.59375 19.921875 59.515625 
L 19.921875 54.6875 
L 34.71875 54.6875 
L 34.71875 47.703125 
L 19.921875 47.703125 
L 19.921875 0 
L 10.890625 0 
L 10.890625 47.703125 
L 2.296875 47.703125 
L 2.296875 54.6875 
L 10.890625 54.6875 
L 10.890625 58.5 
Q 10.890625 67.625 15.140625 71.796875 
Q 19.390625 75.984375 28.609375 75.984375 
z
" id="DejaVuSans-102"/>
     <path d="M 2.984375 54.6875 
L 12.5 54.6875 
L 29.59375 8.796875 
L 46.6875 54.6875 
L 56.203125 54.6875 
L 35.6875 0 
L 23.484375 0 
z
" id="DejaVuSans-118"/>
     <path d="M 10.6875 12.40625 
L 21 12.40625 
L 21 0 
L 10.6875 0 
z
" id="DejaVuSans-46"/>
     <path d="M 28.609375 0 
L 0.78125 72.90625 
L 11.078125 72.90625 
L 34.1875 11.53125 
L 57.328125 72.90625 
L 67.578125 72.90625 
L 39.796875 0 
z
" id="DejaVuSans-86"/>
    </defs>
    <g transform="translate(137.920938 19.44)scale(0.12 -0.12)">
     <use xlink:href="#DejaVuSans-78"/>
     <use x="74.804688" xlink:href="#DejaVuSans-117"/>
     <use x="138.183594" xlink:href="#DejaVuSans-109"/>
     <use x="235.595703" xlink:href="#DejaVuSans-98"/>
     <use x="299.072266" xlink:href="#DejaVuSans-101"/>
     <use x="360.595703" xlink:href="#DejaVuSans-114"/>
     <use x="401.708984" xlink:href="#DejaVuSans-32"/>
     <use x="433.496094" xlink:href="#DejaVuSans-111"/>
     <use x="494.677734" xlink:href="#DejaVuSans-102"/>
     <use x="529.882812" xlink:href="#DejaVuSans-32"/>
     <use x="561.669922" xlink:href="#DejaVuSans-78"/>
     <use x="636.474609" xlink:href="#DejaVuSans-97"/>
     <use x="697.753906" xlink:href="#DejaVuSans-78"/>
     <use x="772.558594" xlink:href="#DejaVuSans-32"/>
     <use x="804.345703" xlink:href="#DejaVuSans-118"/>
     <use x="863.525391" xlink:href="#DejaVuSans-115"/>
     <use x="915.625" xlink:href="#DejaVuSans-46"/>
     <use x="947.412109" xlink:href="#DejaVuSans-32"/>
     <use x="979.199219" xlink:href="#DejaVuSans-78"/>
     <use x="1054.003906" xlink:href="#DejaVuSans-117"/>
     <use x="1117.382812" xlink:href="#DejaVuSans-109"/>
     <use x="1214.794922" xlink:href="#DejaVuSans-98"/>
     <use x="1278.271484" xlink:href="#DejaVuSans-101"/>
     <use x="1339.794922" xlink:href="#DejaVuSans-114"/>
     <use x="1380.908203" xlink:href="#DejaVuSans-32"/>
     <use x="1412.695312" xlink:href="#DejaVuSans-111"/>
     <use x="1473.876953" xlink:href="#DejaVuSans-102"/>
     <use x="1509.082031" xlink:href="#DejaVuSans-32"/>
     <use x="1540.869141" xlink:href="#DejaVuSans-86"/>
     <use x="1609.167969" xlink:href="#DejaVuSans-97"/>
     <use x="1670.447266" xlink:href="#DejaVuSans-108"/>
     <use x="1698.230469" xlink:href="#DejaVuSans-117"/>
     <use x="1761.609375" xlink:href="#DejaVuSans-101"/>
     <use x="1823.132812" xlink:href="#DejaVuSans-115"/>
    </g>
   </g>
   <g id="legend_1">
    <g id="patch_87">
     <path d="M 57.87 230.69 
L 123.305937 230.69 
Q 125.305937 230.69 125.305937 228.69 
L 125.305937 200.33375 
Q 125.305937 198.33375 123.305937 198.33375 
L 57.87 198.33375 
Q 55.87 198.33375 55.87 200.33375 
L 55.87 228.69 
Q 55.87 230.69 57.87 230.69 
z
" style="fill:#ffffff;opacity:0.8;stroke:#cccccc;stroke-linejoin:miter;"/>
    </g>
    <g id="patch_88">
     <path d="M 59.87 209.932187 
L 79.87 209.932187 
L 79.87 202.932187 
L 59.87 202.932187 
z
" style="fill:#1f77b4;"/>
    </g>
    <g id="text_50">
     <!-- Values -->
     <g transform="translate(87.87 209.932187)scale(0.1 -0.1)">
      <use xlink:href="#DejaVuSans-86"/>
      <use x="68.298828" xlink:href="#DejaVuSans-97"/>
      <use x="129.578125" xlink:href="#DejaVuSans-108"/>
      <use x="157.361328" xlink:href="#DejaVuSans-117"/>
      <use x="220.740234" xlink:href="#DejaVuSans-101"/>
      <use x="282.263672" xlink:href="#DejaVuSans-115"/>
     </g>
    </g>
    <g id="patch_89">
     <path d="M 59.87 224.610312 
L 79.87 224.610312 
L 79.87 217.610312 
L 59.87 217.610312 
z
" style="fill:#ff7f0e;"/>
    </g>
    <g id="text_51">
     <!-- NaN -->
     <g transform="translate(87.87 224.610312)scale(0.1 -0.1)">
      <use xlink:href="#DejaVuSans-78"/>
      <use x="74.804688" xlink:href="#DejaVuSans-97"/>
      <use x="136.083984" xlink:href="#DejaVuSans-78"/>
     </g>
    </g>
   </g>
  </g>
 </g>
 <defs>
  <clipPath id="p0e2a291762">
   <rect height="210.25" width="399.13" x="50.87" y="25.44"/>
  </clipPath>
 </defs>
</svg>
